<?xml version="1.0" encoding="utf-8"?>
<!-- Generator: Adobe Illustrator 19.2.1, SVG Export Plug-In . SVG Version: 6.00 Build 0)  -->
<svg version="1.1" id="Layer_1" xmlns="http://www.w3.org/2000/svg" xmlns:xlink="http://www.w3.org/1999/xlink" x="0px" y="0px"
	 viewBox="0 0 154.3 38.6" enable-background="new 0 0 154.3 38.6" xml:space="preserve">
<path fill="#FFFFFF" d="M6.2,8.5c0-1.8-0.5-3.9-3-3.9c-0.8,0-1.8,0.2-2.6,0.9l0.3,0.7c0.6-0.5,1.4-0.7,2.2-0.7c2.1,0,2.2,2,2.2,2.9
	v0.3C1.8,8.6,0,10,0,12.3C0,13.6,0.8,15,2.6,15c1.4,0,2.4-0.9,2.8-1.7h0l0.1,1.4h0.8c-0.1-0.8-0.1-1.6-0.1-2.4V8.5L6.2,8.5z
	 M5.3,11.6c0,0.2,0,0.4-0.1,0.6c-0.3,1-1.1,2-2.6,2c-0.9,0-1.7-0.6-1.7-2.1c0-2.4,2.5-2.7,4.4-2.7V11.6L5.3,11.6z M9,14.8h0.9V8.6
	c0-0.3,0.1-0.6,0.1-0.9c0.3-1.3,1.4-2.3,2.6-2.3C14.4,5.4,15,7,15,8.9v5.9h0.9v-6c0-3.7-2.2-4.2-3-4.2c-1.4,0-2.5,0.9-3,2h0L9.7,4.8
	H8.9C9,5.6,9,6.3,9,7.2V14.8L9,14.8z M24.7,0v6.3h0c-0.4-0.9-1.3-1.8-2.8-1.8c-2.1,0-3.9,2.1-3.9,5.4c0,3,1.6,5,3.7,5
	c1.6,0,2.6-1,3.1-2.1h0l0.1,1.9h0.8c-0.1-0.7-0.1-1.6-0.1-2.3V0H24.7L24.7,0z M24.7,10.8c0,0.3,0,0.6-0.1,0.8
	c-0.4,1.6-1.5,2.6-2.8,2.6c-2.1,0-3-2.1-3-4.3c0-2.6,1.2-4.5,3.1-4.5c1.4,0,2.4,1.1,2.7,2.4c0.1,0.3,0.1,0.6,0.1,0.9V10.8L24.7,10.8
	z M32.5,0.8v8.5c0,4.3,1.9,5.7,4.1,5.7c2.3,0,4.3-1.6,4.3-5.9V0.8H40v8.5c0,3.5-1.4,4.9-3.4,4.9c-1.8,0-3.2-1.4-3.2-4.9V0.8H32.5
	L32.5,0.8z M43.8,14.8h0.9V9.3c0-0.3,0-0.7,0.1-1C45,6.7,45.8,5.5,47,5.5c0.2,0,0.3,0,0.4,0V4.6c-0.1,0-0.2,0-0.4,0
	c-1.2,0-2.1,1-2.5,2.2h-0.1l0-2h-0.8c0.1,1,0.1,2,0.1,3V14.8L43.8,14.8z M55.9,7.4c0-1,0-1.8,0.1-2.6h-0.8l-0.1,1.7h0
	c-0.4-0.8-1.2-1.9-2.9-1.9c-1.9,0-3.9,1.8-3.9,5.3c0,2.7,1.5,4.9,3.7,4.9c1.6,0,2.6-0.9,3-1.9h0v1.4c0,3-1.3,4-3.2,4
	c-1.1,0-2-0.4-2.6-0.8L49,18.3c0.7,0.6,1.8,0.9,2.8,0.9c1,0,2.2-0.3,3-1.2c0.7-0.8,1.2-2.1,1.2-4.6V7.4L55.9,7.4z M55.1,10.6
	c0,0.4-0.1,0.7-0.1,1.1c-0.5,1.4-1.5,2.2-2.7,2.2c-2,0-3.1-1.9-3.1-4.2c0-2.6,1.3-4.4,3.1-4.4c1.4,0,2.3,1.1,2.7,2.3
	c0.1,0.3,0.1,0.6,0.1,1V10.6L55.1,10.6z M65.4,9.7c0-0.2,0-0.3,0-0.6c0-1.4-0.5-4.5-3.4-4.5c-2.2,0-3.9,2.1-3.9,5.4
	c0,2.9,1.6,5,4.1,5c1.5,0,2.4-0.4,2.7-0.6l-0.2-0.8c-0.5,0.3-1.1,0.6-2.4,0.6c-1.8,0-3.3-1.3-3.3-4.4H65.4L65.4,9.7z M59,8.9
	c0.2-1.5,1-3.5,2.9-3.5c2.1,0,2.6,2.1,2.6,3.5H59L59,8.9z M67.6,14.8h0.9V8.6c0-0.3,0.1-0.6,0.1-0.9C69,6.4,70,5.4,71.2,5.4
	c1.8,0,2.4,1.6,2.4,3.5v5.9h0.9v-6c0-3.7-2.2-4.2-3-4.2c-1.4,0-2.5,0.9-3,2h0l-0.1-1.8h-0.8c0.1,0.8,0.1,1.5,0.1,2.4V14.8L67.6,14.8
	z M77.7,3v1.8h-1.5v0.8h1.5v6.3c0,1,0.1,1.9,0.5,2.4c0.3,0.5,0.9,0.7,1.5,0.7c0.5,0,0.9-0.1,1.2-0.2L80.8,14c-0.2,0.1-0.5,0.1-1,0.1
	c-0.9,0-1.3-0.8-1.3-2.1V5.6H81V4.8h-2.5V2.6L77.7,3L77.7,3z M86.9,14.8h0.9V8.4h1.9c1.6,0.1,2.4,1,2.8,3c0.3,1.8,0.6,3,0.8,3.4h0.9
	c-0.3-0.6-0.5-1.6-0.9-3.8c-0.3-1.6-0.9-2.6-1.9-3v0c1.4-0.6,2.4-1.8,2.4-3.7c0-1-0.3-1.9-0.9-2.5c-0.7-0.8-1.7-1.2-3.3-1.2
	c-0.9,0-1.9,0.1-2.6,0.3V14.8L86.9,14.8z M87.8,1.7c0.3-0.1,0.9-0.2,1.8-0.2c1.9,0,3.3,0.9,3.3,3c0,1.9-1.2,3.1-3.1,3.1h-1.9V1.7
	L87.8,1.7z M102.7,9.7c0-0.2,0-0.3,0-0.6c0-1.4-0.5-4.5-3.4-4.5c-2.2,0-3.9,2.1-3.9,5.4c0,2.9,1.6,5,4.1,5c1.5,0,2.4-0.4,2.7-0.6
	l-0.2-0.8c-0.5,0.3-1.1,0.6-2.4,0.6c-1.8,0-3.3-1.3-3.3-4.4H102.7L102.7,9.7z M96.3,8.9c0.2-1.5,1-3.5,2.9-3.5
	c2.1,0,2.6,2.1,2.6,3.5H96.3L96.3,8.9z M104.2,14.3c0.6,0.4,1.4,0.7,2.2,0.7c1.8,0,2.9-1.1,2.9-2.8c0-1.5-0.8-2.3-2.2-3
	c-1.2-0.6-1.8-1-1.8-2c0-0.9,0.6-1.7,1.7-1.7c0.9,0,1.4,0.4,1.7,0.6l0.3-0.8c-0.4-0.4-1.1-0.6-1.9-0.6c-1.7,0-2.7,1.2-2.7,2.7
	c0,1.2,0.8,2.1,2.2,2.7c1.2,0.6,1.8,1.2,1.8,2.3c0,1-0.7,1.9-2,1.9c-0.8,0-1.5-0.4-2-0.7L104.2,14.3L104.2,14.3z M111.6,18.9h0.9
	v-5.7h0c0.6,1.2,1.7,1.9,3,1.9c2.1,0,3.9-1.8,3.9-5.4c0-2.9-1.5-5.1-3.7-5.1c-1.5,0-2.6,0.8-3.2,2.1h0l-0.1-1.9h-0.8
	c0.1,1,0.1,1.9,0.1,3.2V18.9L111.6,18.9z M112.5,8.9c0-0.3,0.1-0.6,0.1-0.9c0.4-1.6,1.6-2.6,2.9-2.6c2,0,3.1,2,3.1,4.3
	c0,2.7-1.1,4.5-3.1,4.5c-1.3,0-2.5-1-2.9-2.5c-0.1-0.2-0.1-0.5-0.1-0.8V8.9L112.5,8.9z M124.9,15c1.9,0,4.1-1.6,4.1-5.3
	c0-3.1-1.6-5.1-4-5.1c-2.2,0-4.1,1.9-4.1,5.3C120.9,13,122.7,15,124.9,15L124.9,15L124.9,15z M125,14.2c-1.8,0-3.2-1.9-3.2-4.4
	c0-2.1,1-4.4,3.2-4.4c2.3,0,3.2,2.5,3.2,4.3C128.2,12.3,126.8,14.2,125,14.2L125,14.2L125,14.2z M131.3,14.8h0.9V8.6
	c0-0.3,0.1-0.6,0.1-0.9c0.3-1.3,1.4-2.3,2.6-2.3c1.8,0,2.4,1.6,2.4,3.5v5.9h0.9v-6c0-3.7-2.2-4.2-3-4.2c-1.4,0-2.5,0.9-3,2h0
	L132,4.8h-0.8c0.1,0.8,0.1,1.5,0.1,2.4V14.8L131.3,14.8z M140.3,14.3c0.6,0.4,1.4,0.7,2.2,0.7c1.8,0,2.9-1.1,2.9-2.8
	c0-1.5-0.8-2.3-2.2-3c-1.2-0.6-1.8-1-1.8-2c0-0.9,0.6-1.7,1.7-1.7c0.9,0,1.4,0.4,1.7,0.6l0.3-0.8c-0.4-0.4-1.1-0.6-1.9-0.6
	c-1.7,0-2.7,1.2-2.7,2.7c0,1.2,0.8,2.1,2.2,2.7c1.2,0.6,1.8,1.2,1.8,2.3c0,1-0.7,1.9-2,1.9c-0.8,0-1.5-0.4-2-0.7L140.3,14.3
	L140.3,14.3z M154.3,9.7c0-0.2,0-0.3,0-0.6c0-1.4-0.5-4.5-3.4-4.5c-2.2,0-3.9,2.1-3.9,5.4c0,2.9,1.6,5,4.1,5c1.5,0,2.4-0.4,2.7-0.6
	l-0.2-0.8c-0.5,0.3-1.1,0.6-2.4,0.6c-1.8,0-3.3-1.3-3.3-4.4H154.3L154.3,9.7z M147.9,8.9c0.2-1.5,1-3.5,2.9-3.5
	c2.1,0,2.6,2.1,2.6,3.5H147.9L147.9,8.9z M0.7,36c0,0.7,0,1.6-0.1,2.3h0.8l0.1-1.8h0c0.7,1.4,1.7,2,3.1,2c1.9,0,3.9-1.8,3.9-5.3
	c0-3-1.5-5.1-3.7-5.1c-1.5,0-2.6,0.8-3.2,2.1h0v-6.7H0.7V36L0.7,36z M1.6,32.5c0-0.4,0.1-0.6,0.1-0.9C2.1,30,3.3,29,4.6,29
	c2,0,3.1,2,3.1,4.3c0,2.6-1.1,4.5-3.1,4.5c-1.4,0-2.5-1-2.9-2.5c-0.1-0.2-0.1-0.5-0.1-0.7V32.5L1.6,32.5z M17.5,28.4h-0.9v6.2
	c0,0.4-0.1,0.8-0.2,1.1c-0.4,1-1.3,2-2.6,2c-1.7,0-2.3-1.6-2.3-3.7v-5.6h-0.9v5.8c0,3.8,1.9,4.4,3,4.4c1.5,0,2.5-1.1,3-2h0l0.1,1.8
	h0.8c-0.1-0.8-0.1-1.6-0.1-2.4V28.4L17.5,28.4z M20.7,26.5v1.8h-1.5v0.8h1.5v6.3c0,1,0.1,1.9,0.5,2.4c0.3,0.5,0.9,0.7,1.5,0.7
	c0.5,0,0.9-0.1,1.2-0.2l-0.1-0.7c-0.2,0.1-0.5,0.1-1,0.1c-0.9,0-1.3-0.8-1.3-2.1v-6.5H24v-0.8h-2.5v-2.2L20.7,26.5L20.7,26.5z
	 M26.3,26.5v1.8h-1.5v0.8h1.5v6.3c0,1,0.1,1.9,0.5,2.4c0.3,0.5,0.9,0.7,1.5,0.7c0.5,0,0.9-0.1,1.2-0.2l-0.1-0.7
	c-0.2,0.1-0.5,0.1-1,0.1c-0.9,0-1.3-0.8-1.3-2.1v-6.5h2.5v-0.8h-2.5v-2.2L26.3,26.5L26.3,26.5z M34.7,38.6c1.9,0,4.1-1.6,4.1-5.3
	c0-3.1-1.6-5.1-4-5.1c-2.2,0-4.1,1.9-4.1,5.3C30.7,36.6,32.5,38.6,34.7,38.6L34.7,38.6L34.7,38.6z M34.7,37.7
	c-1.8,0-3.2-1.9-3.2-4.4c0-2.1,1-4.4,3.2-4.4c2.3,0,3.2,2.5,3.2,4.3C38,35.9,36.6,37.7,34.7,37.7L34.7,37.7L34.7,37.7z M41.1,38.3
	h0.9v-6.2c0-0.3,0.1-0.6,0.1-0.9c0.3-1.3,1.4-2.3,2.6-2.3c1.8,0,2.4,1.6,2.4,3.5v5.9h0.9v-6c0-3.7-2.2-4.2-3-4.2c-1.4,0-2.5,0.9-3,2
	h0l-0.1-1.8H41c0.1,0.8,0.1,1.5,0.1,2.4V38.3L41.1,38.3z"/>
</svg>
