<?xml version="1.0" encoding="utf-8"?>
<!-- Generator: Adobe Illustrator 19.2.1, SVG Export Plug-In . SVG Version: 6.00 Build 0)  -->
<svg version="1.1" id="Layer_1" xmlns="http://www.w3.org/2000/svg" xmlns:xlink="http://www.w3.org/1999/xlink" x="0px" y="0px"
	 viewBox="0 0 96.3 85.6" enable-background="new 0 0 96.3 85.6" xml:space="preserve">
<path fill="#FFFFFF" d="M0.8,0.8v14h0.9v-7h6.7v7h0.9v-14H8.4v6.2H1.6V0.8H0.8L0.8,0.8z M18.7,9.7c0-0.2,0-0.3,0-0.6
	c0-1.4-0.5-4.5-3.4-4.5c-2.2,0-3.9,2.1-3.9,5.4c0,2.9,1.6,5,4.1,5c1.5,0,2.4-0.4,2.7-0.6L18,13.6c-0.5,0.3-1.1,0.6-2.4,0.6
	c-1.8,0-3.3-1.3-3.3-4.4H18.7L18.7,9.7z M12.3,8.9c0.2-1.5,1-3.5,2.9-3.5c2.1,0,2.6,2.1,2.6,3.5H12.3L12.3,8.9z M20.9,14.8h0.9V0
	h-0.9V14.8L20.9,14.8z M24.8,18.9h0.9v-5.7h0c0.6,1.2,1.7,1.9,3,1.9c2.1,0,3.9-1.8,3.9-5.4c0-2.9-1.5-5.1-3.7-5.1
	c-1.5,0-2.6,0.8-3.2,2.1h0l-0.1-1.9h-0.8c0.1,1,0.1,1.9,0.1,3.2V18.9L24.8,18.9z M25.6,8.9c0-0.3,0.1-0.6,0.1-0.9
	c0.4-1.6,1.6-2.6,2.9-2.6c2,0,3.1,2,3.1,4.3c0,2.7-1.1,4.5-3.1,4.5c-1.3,0-2.5-1-2.9-2.5c-0.1-0.2-0.1-0.5-0.1-0.8V8.9L25.6,8.9z
	 M49.4,14.8h0.9l-0.8-14h-1l-2.7,8.1c-0.6,1.9-1.1,3.2-1.4,4.5h-0.1c-0.3-1.4-0.8-2.8-1.3-4.5l-2.6-8.1h-1l-0.9,14h0.9l0.4-6.4
	c0.1-2.3,0.2-4.8,0.3-6.4h0c0.4,1.5,0.9,3.2,1.6,5.4l2.4,7.4h0.6l2.6-7.6c0.7-2.1,1.2-3.7,1.6-5.2h0c0,1.5,0.1,4.1,0.3,6.2
	L49.4,14.8L49.4,14.8z M56.2,15c1.9,0,4.1-1.6,4.1-5.3c0-3.1-1.6-5.1-4-5.1c-2.2,0-4.1,1.9-4.1,5.3C52.2,13,54,15,56.2,15L56.2,15
	L56.2,15z M56.3,14.2c-1.8,0-3.2-1.9-3.2-4.4c0-2.1,1-4.4,3.2-4.4c2.3,0,3.2,2.5,3.2,4.3C59.5,12.3,58.1,14.2,56.3,14.2L56.3,14.2
	L56.3,14.2z M62.6,14.8h0.9V8.6c0-0.4,0.1-0.7,0.1-1c0.3-1.2,1.2-2.2,2.4-2.2c1.4,0,2.2,1.3,2.2,3.1v6.3H69V8.4c0-0.4,0.1-0.7,0.1-1
	c0.3-1,1.2-2,2.3-2c1.5,0,2.3,1.3,2.3,3.6v5.8h0.9V8.9c0-3.8-2-4.3-2.8-4.3c-0.9,0-1.5,0.3-2.1,0.8c-0.3,0.3-0.7,0.8-0.9,1.4h0
	c-0.4-1.2-1.3-2.2-2.5-2.2c-1.4,0-2.3,0.8-2.8,2h0l-0.1-1.7h-0.8c0.1,0.8,0.1,1.5,0.1,2.4V14.8L62.6,14.8z M0.1,36.5
	c0.6,0.4,1.4,0.7,2.2,0.7c1.8,0,2.9-1.1,2.9-2.8c0-1.5-0.8-2.3-2.2-3c-1.2-0.6-1.8-1-1.8-2c0-0.9,0.6-1.7,1.7-1.7
	c0.9,0,1.4,0.4,1.7,0.6l0.3-0.8c-0.4-0.4-1.1-0.6-1.9-0.6c-1.7,0-2.7,1.2-2.7,2.7c0,1.2,0.8,2.1,2.2,2.7c1.2,0.6,1.8,1.2,1.8,2.3
	c0,1-0.7,1.9-2,1.9c-0.8,0-1.5-0.4-2-0.7L0.1,36.5L0.1,36.5z M7.8,25.2V27H6.4v0.8h1.5v6.3c0,1,0.1,1.9,0.5,2.4
	c0.3,0.5,0.9,0.7,1.5,0.7c0.5,0,0.9-0.1,1.2-0.2L11,36.2c-0.2,0.1-0.5,0.1-1,0.1c-0.9,0-1.3-0.8-1.3-2.1v-6.5h2.5V27H8.7v-2.2
	L7.8,25.2L7.8,25.2z M18.5,30.7c0-1.8-0.5-3.9-3-3.9c-0.8,0-1.8,0.2-2.6,0.9l0.3,0.7c0.6-0.5,1.4-0.7,2.2-0.7c2.1,0,2.2,2,2.2,2.9
	v0.3c-3.5,0-5.3,1.4-5.3,3.7c0,1.3,0.8,2.7,2.6,2.7c1.4,0,2.4-0.9,2.8-1.7h0l0.1,1.4h0.8c-0.1-0.8-0.1-1.6-0.1-2.4V30.7L18.5,30.7z
	 M17.7,33.8c0,0.2,0,0.4-0.1,0.6c-0.3,1-1.1,2-2.6,2c-0.9,0-1.7-0.6-1.7-2.1c0-2.4,2.5-2.7,4.4-2.7V33.8L17.7,33.8z M20,27l3.2,9.3
	c0.1,0.2,0.1,0.4,0.1,0.4c0,0.1,0,0.2-0.1,0.4c-0.4,1.2-1,2-1.4,2.5c-0.5,0.6-1.1,0.9-1.5,1.1l0.3,0.8c0.2-0.1,0.8-0.4,1.5-1
	c1.1-1.1,1.9-3,2.9-6.1l2.6-7.4h-0.9l-2.1,6.5c-0.3,0.8-0.5,1.6-0.7,2.2h0c-0.2-0.6-0.4-1.4-0.6-2.1L20.9,27H20L20,27z M38.6,30.7
	c0-1.8-0.5-3.9-3-3.9c-0.8,0-1.8,0.2-2.6,0.9l0.3,0.7c0.6-0.5,1.4-0.7,2.2-0.7c2.1,0,2.2,2,2.2,2.9v0.3c-3.5,0-5.3,1.4-5.3,3.7
	c0,1.3,0.8,2.7,2.6,2.7c1.4,0,2.4-0.9,2.8-1.7h0l0.1,1.4h0.8c-0.1-0.8-0.1-1.6-0.1-2.4V30.7L38.6,30.7z M37.7,33.8
	c0,0.2,0,0.4-0.1,0.6c-0.3,1-1.1,2-2.6,2c-0.9,0-1.7-0.6-1.7-2.1c0-2.4,2.5-2.7,4.4-2.7V33.8L37.7,33.8z M47.1,35.8
	C46.7,36,46,36.4,45,36.4c-2,0-3.4-1.7-3.4-4.3c0-2.3,1.2-4.4,3.5-4.4c1,0,1.6,0.3,2,0.6l0.3-0.8c-0.3-0.3-1.2-0.6-2.3-0.6
	c-2.6,0-4.5,2.1-4.5,5.3c0,3,1.7,5.1,4.2,5.1c1.3,0,2.2-0.4,2.6-0.6L47.1,35.8L47.1,35.8z M50,25.2V27h-1.5v0.8H50v6.3
	c0,1,0.1,1.9,0.5,2.4c0.3,0.5,0.9,0.7,1.5,0.7c0.5,0,0.9-0.1,1.2-0.2l-0.1-0.7c-0.2,0.1-0.5,0.1-1,0.1c-0.9,0-1.3-0.8-1.3-2.1v-6.5
	h2.5V27h-2.5v-2.2L50,25.2L50,25.2z M56.1,37V27h-0.9v10H56.1L56.1,37z M55.7,25c0.4,0,0.7-0.4,0.7-0.9c0-0.5-0.3-0.9-0.7-0.9
	S55,23.7,55,24.2S55.2,25,55.7,25L55.7,25L55.7,25z M57.8,27l3.4,10H62l3.5-10h-0.9l-2.1,6.2c-0.3,1-0.7,1.8-0.9,2.7h0
	c-0.2-0.9-0.5-1.7-0.9-2.7l-2-6.2H57.8L57.8,27z M73.6,31.9c0-0.2,0-0.3,0-0.6c0-1.4-0.5-4.5-3.4-4.5c-2.2,0-3.9,2.1-3.9,5.4
	c0,2.9,1.6,5,4.1,5c1.5,0,2.4-0.4,2.7-0.6l-0.2-0.8c-0.5,0.3-1.1,0.6-2.4,0.6c-1.8,0-3.3-1.3-3.3-4.4H73.6L73.6,31.9z M67.3,31.1
	c0.2-1.5,1-3.5,2.9-3.5c2.1,0,2.6,2.1,2.6,3.5H67.3L67.3,31.1z M6.2,53c0-1.8-0.5-3.9-3-3.9c-0.8,0-1.8,0.2-2.6,0.9l0.3,0.7
	c0.6-0.5,1.4-0.7,2.2-0.7c2.1,0,2.2,2,2.2,2.9v0.3C1.8,53,0,54.4,0,56.7c0,1.3,0.8,2.7,2.6,2.7c1.4,0,2.4-0.9,2.8-1.7h0l0.1,1.4h0.8
	c-0.1-0.8-0.1-1.6-0.1-2.4V53L6.2,53z M5.3,56c0,0.2,0,0.4-0.1,0.6c-0.3,1-1.1,2-2.6,2c-0.9,0-1.7-0.6-1.7-2.1
	c0-2.4,2.5-2.7,4.4-2.7V56L5.3,56z M9,59.2h0.9V53c0-0.3,0.1-0.6,0.1-0.9c0.3-1.3,1.4-2.3,2.6-2.3c1.8,0,2.4,1.6,2.4,3.5v5.9h0.9v-6
	c0-3.7-2.2-4.2-3-4.2c-1.4,0-2.5,0.9-3,2h0l-0.1-1.8H8.9C9,50,9,50.7,9,51.6V59.2L9,59.2z M24.7,44.5v6.3h0
	c-0.4-0.9-1.3-1.8-2.8-1.8c-2.1,0-3.9,2.1-3.9,5.4c0,3,1.6,5,3.7,5c1.6,0,2.6-1,3.1-2.1h0l0.1,1.9h0.8c-0.1-0.7-0.1-1.6-0.1-2.3
	V44.5H24.7L24.7,44.5z M24.7,55.2c0,0.3,0,0.6-0.1,0.8c-0.4,1.6-1.5,2.6-2.8,2.6c-2.1,0-3-2.1-3-4.3c0-2.6,1.2-4.5,3.1-4.5
	c1.4,0,2.4,1.1,2.7,2.4c0.1,0.3,0.1,0.6,0.1,0.9V55.2L24.7,55.2z M1.6,81.5v-10H0.8v10H1.6L1.6,81.5z M1.2,69.5
	c0.4,0,0.7-0.4,0.7-0.9c0-0.5-0.3-0.9-0.7-0.9c-0.4,0-0.7,0.4-0.7,0.9C0.5,69.1,0.8,69.5,1.2,69.5L1.2,69.5L1.2,69.5z M4.5,81.5h0.9
	v-6.2c0-0.3,0.1-0.6,0.1-0.9c0.3-1.3,1.4-2.3,2.6-2.3c1.8,0,2.4,1.6,2.4,3.5v5.9h0.9v-6c0-3.7-2.2-4.2-3-4.2c-1.4,0-2.5,0.9-3,2h0
	l-0.1-1.8H4.5c0.1,0.8,0.1,1.5,0.1,2.4V81.5L4.5,81.5z M20.3,66.7V73h0c-0.4-0.9-1.3-1.8-2.8-1.8c-2.1,0-3.9,2.1-3.9,5.4
	c0,3,1.6,5,3.7,5c1.6,0,2.6-1,3.1-2.1h0l0.1,1.9h0.8c-0.1-0.7-0.1-1.6-0.1-2.3V66.7H20.3L20.3,66.7z M20.3,77.4c0,0.3,0,0.6-0.1,0.8
	c-0.4,1.6-1.5,2.6-2.8,2.6c-2.1,0-3-2.1-3-4.3c0-2.6,1.2-4.5,3.1-4.5c1.4,0,2.4,1.1,2.7,2.4c0.1,0.3,0.1,0.6,0.1,0.9V77.4L20.3,77.4
	z M30.6,76.4c0-0.2,0-0.3,0-0.6c0-1.4-0.5-4.5-3.4-4.5c-2.2,0-3.9,2.1-3.9,5.4c0,2.9,1.6,5,4.1,5c1.5,0,2.4-0.4,2.7-0.6l-0.2-0.8
	c-0.5,0.3-1.1,0.6-2.4,0.6c-1.8,0-3.3-1.3-3.3-4.4H30.6L30.6,76.4z M24.3,75.6c0.2-1.5,1-3.5,2.9-3.5c2.1,0,2.6,2.1,2.6,3.5H24.3
	L24.3,75.6z M32.9,85.6h0.9v-5.7h0c0.6,1.2,1.7,1.9,3,1.9c2.1,0,3.9-1.8,3.9-5.4c0-2.9-1.5-5.1-3.7-5.1c-1.5,0-2.6,0.8-3.2,2.1h0
	l-0.1-1.9h-0.8c0.1,1,0.1,1.9,0.1,3.2V85.6L32.9,85.6z M33.7,75.6c0-0.3,0.1-0.6,0.1-0.9c0.4-1.6,1.6-2.6,2.9-2.6c2,0,3.1,2,3.1,4.3
	c0,2.7-1.1,4.5-3.1,4.5c-1.3,0-2.5-1-2.9-2.5c-0.1-0.2-0.1-0.5-0.1-0.8V75.6L33.7,75.6z M49.4,76.4c0-0.2,0-0.3,0-0.6
	c0-1.4-0.5-4.5-3.4-4.5c-2.2,0-3.9,2.1-3.9,5.4c0,2.9,1.6,5,4.1,5c1.5,0,2.4-0.4,2.7-0.6l-0.2-0.8c-0.5,0.3-1.1,0.6-2.4,0.6
	c-1.8,0-3.3-1.3-3.3-4.4H49.4L49.4,76.4z M43.1,75.6c0.2-1.5,1-3.5,2.9-3.5c2.1,0,2.6,2.1,2.6,3.5H43.1L43.1,75.6z M51.7,81.5h0.9
	v-6.2c0-0.3,0.1-0.6,0.1-0.9c0.3-1.3,1.4-2.3,2.6-2.3c1.8,0,2.4,1.6,2.4,3.5v5.9h0.9v-6c0-3.7-2.2-4.2-3-4.2c-1.4,0-2.5,0.9-3,2h0
	l-0.1-1.8h-0.8c0.1,0.8,0.1,1.5,0.1,2.4V81.5L51.7,81.5z M67.4,66.7V73h0c-0.4-0.9-1.3-1.8-2.8-1.8c-2.1,0-3.9,2.1-3.9,5.4
	c0,3,1.6,5,3.7,5c1.6,0,2.6-1,3.1-2.1h0l0.1,1.9h0.8c-0.1-0.7-0.1-1.6-0.1-2.3V66.7H67.4L67.4,66.7z M67.4,77.4c0,0.3,0,0.6-0.1,0.8
	c-0.4,1.6-1.5,2.6-2.8,2.6c-2.1,0-3-2.1-3-4.3c0-2.6,1.2-4.5,3.1-4.5c1.4,0,2.4,1.1,2.7,2.4c0.1,0.3,0.1,0.6,0.1,0.9V77.4L67.4,77.4
	z M77.7,76.4c0-0.2,0-0.3,0-0.6c0-1.4-0.5-4.5-3.4-4.5c-2.2,0-3.9,2.1-3.9,5.4c0,2.9,1.6,5,4.1,5c1.5,0,2.4-0.4,2.7-0.6l-0.2-0.8
	c-0.5,0.3-1.1,0.6-2.4,0.6c-1.8,0-3.3-1.3-3.3-4.4H77.7L77.7,76.4z M71.4,75.6c0.2-1.5,1-3.5,2.9-3.5c2.1,0,2.6,2.1,2.6,3.5H71.4
	L71.4,75.6z M80,81.5h0.9v-6.2c0-0.3,0.1-0.6,0.1-0.9c0.3-1.3,1.4-2.3,2.6-2.3c1.8,0,2.4,1.6,2.4,3.5v5.9h0.9v-6
	c0-3.7-2.2-4.2-3-4.2c-1.4,0-2.5,0.9-3,2h0l-0.1-1.8h-0.8C80,72.3,80,73,80,73.9V81.5L80,81.5z M90,69.6v1.8h-1.5v0.8H90v6.3
	c0,1,0.1,1.9,0.5,2.4c0.3,0.5,0.9,0.7,1.5,0.7c0.5,0,0.9-0.1,1.2-0.2l-0.1-0.7c-0.2,0.1-0.5,0.1-1,0.1c-0.9,0-1.3-0.8-1.3-2.1v-6.5
	h2.5v-0.8h-2.5v-2.2L90,69.6L90,69.6z M95.5,81.7c0.5,0,0.7-0.4,0.7-0.9c0-0.5-0.3-0.9-0.7-0.9s-0.7,0.4-0.7,0.9
	C94.8,81.3,95.1,81.7,95.5,81.7L95.5,81.7L95.5,81.7z"/>
</svg>
