<?xml version="1.0" encoding="utf-8"?>
<!-- Generator: Adobe Illustrator 19.2.1, SVG Export Plug-In . SVG Version: 6.00 Build 0)  -->
<svg version="1.1" id="Layer_1" xmlns="http://www.w3.org/2000/svg" xmlns:xlink="http://www.w3.org/1999/xlink" x="0px" y="0px"
	 viewBox="0 0 107.6 31.1" enable-background="new 0 0 107.6 31.1" xml:space="preserve">
<g>
	<g id="Layer_x0020_1_1_">
		<rect fill="#DE2372" width="107.6" height="31.1"/>
	</g>
	<g>
		<path fill="#FFFFFF" stroke="#FFFFFF" stroke-width="0.5" stroke-miterlimit="10" d="M16,18.6c0.6,0.4,1.5,0.7,2.5,0.7
			c1.5,0,2.3-0.8,2.3-1.9c0-1-0.6-1.6-2.1-2.2c-1.8-0.6-2.9-1.6-2.9-3.1c0-1.7,1.4-3,3.6-3c1.1,0,1.9,0.3,2.4,0.5l-0.4,1.2
			c-0.3-0.2-1.1-0.5-2.1-0.5c-1.5,0-2.1,0.9-2.1,1.6c0,1,0.7,1.5,2.2,2.1c1.9,0.7,2.8,1.6,2.8,3.2c0,1.7-1.2,3.2-3.8,3.2
			c-1.1,0-2.2-0.3-2.8-0.7L16,18.6z"/>
		<path fill="#FFFFFF" stroke="#FFFFFF" stroke-width="0.5" stroke-miterlimit="10" d="M25.6,9.4V14h5.3V9.4h1.4v11h-1.4v-5.2h-5.3
			v5.2h-1.4v-11H25.6z"/>
		<path fill="#FFFFFF" stroke="#FFFFFF" stroke-width="0.5" stroke-miterlimit="10" d="M39.1,20.5c-2.9,0-4.9-2.3-4.9-5.6
			c0-3.5,2.2-5.8,5.1-5.8c3,0,5,2.3,5,5.6C44.2,18.5,41.9,20.5,39.1,20.5L39.1,20.5z M39.2,19.4c2.3,0,3.5-2.1,3.5-4.6
			c0-2.2-1.1-4.5-3.5-4.5s-3.5,2.2-3.5,4.6C35.7,17.2,37,19.4,39.2,19.4L39.2,19.4z"/>
		<path fill="#FFFFFF" stroke="#FFFFFF" stroke-width="0.5" stroke-miterlimit="10" d="M46.1,9.5c0.7-0.1,1.6-0.2,2.7-0.2
			c1.4,0,2.4,0.3,3.1,0.9c0.6,0.5,1,1.3,1,2.3c0,1-0.3,1.8-0.9,2.3c-0.8,0.8-2,1.2-3.4,1.2c-0.4,0-0.8,0-1.1-0.1v4.4h-1.4V9.5z
			 M47.5,14.8c0.3,0.1,0.7,0.1,1.2,0.1c1.7,0,2.8-0.8,2.8-2.3c0-1.5-1-2.2-2.6-2.2c-0.6,0-1.1,0-1.3,0.1V14.8z"/>
		<path fill="#FFFFFF" stroke="#FFFFFF" stroke-width="0.5" stroke-miterlimit="10" d="M58.2,20.3v-11h1.6l3.5,5.6
			c0.8,1.3,1.5,2.4,2,3.6l0,0c-0.1-1.5-0.2-2.8-0.2-4.5V9.4h1.3v11H65l-3.5-5.6c-0.8-1.2-1.5-2.5-2-3.7l0,0c0.1,1.4,0.1,2.7,0.1,4.5
			v4.7H58.2z"/>
		<path fill="#FFFFFF" stroke="#FFFFFF" stroke-width="0.5" stroke-miterlimit="10" d="M73.2,20.5c-2.9,0-4.9-2.3-4.9-5.6
			c0-3.5,2.2-5.8,5.1-5.8c3,0,5,2.3,5,5.6C78.3,18.5,76,20.5,73.2,20.5L73.2,20.5z M73.3,19.4c2.3,0,3.5-2.1,3.5-4.6
			c0-2.2-1.1-4.5-3.5-4.5s-3.5,2.2-3.5,4.6C69.8,17.2,71.1,19.4,73.3,19.4L73.3,19.4z"/>
		<path fill="#FFFFFF" stroke="#FFFFFF" stroke-width="0.5" stroke-miterlimit="10" d="M82,20.3l-2.8-11h1.5l1.3,5.6
			c0.3,1.4,0.6,2.7,0.8,3.8h0c0.2-1.1,0.5-2.4,0.9-3.8l1.5-5.5h1.5l1.3,5.6c0.3,1.3,0.6,2.6,0.8,3.8h0c0.2-1.2,0.5-2.4,0.9-3.8
			l1.5-5.5h1.5l-3.1,11H88l-1.4-5.7c-0.3-1.4-0.6-2.5-0.7-3.6h0c-0.2,1.1-0.4,2.2-0.8,3.6l-1.6,5.7H82z"/>
	</g>
</g>
</svg>
