<?xml version="1.0" encoding="utf-8"?>
<!-- Generator: Adobe Illustrator 19.2.1, SVG Export Plug-In . SVG Version: 6.00 Build 0)  -->
<svg version="1.1" id="Layer_1" xmlns="http://www.w3.org/2000/svg" xmlns:xlink="http://www.w3.org/1999/xlink" x="0px" y="0px"
	 viewBox="0 0 95.4 102.2" enable-background="new 0 0 95.4 102.2" xml:space="preserve">
<g>
	<path fill="#FFFFFF" stroke="#FFFFFF" stroke-width="0.5" stroke-miterlimit="10" d="M6.5,6.5h-6V5.3h13.3v1.2h-6v19.7H6.5V6.5z"/>
	<path fill="#FFFFFF" stroke="#FFFFFF" stroke-width="0.5" stroke-miterlimit="10" d="M15.9,4.3h1.4v9.3h0.1c0.4-0.7,1-1.4,1.8-1.9
		c0.7-0.5,1.6-0.7,2.7-0.7c1.4,0,4.6,0.8,4.6,5.8v9.4h-1.4v-9.1c0-2.5-0.9-4.8-3.6-4.8c-1.9,0-3.4,1.4-4,3.3
		c-0.1,0.4-0.2,0.8-0.2,1.4v9.3h-1.4V4.3z"/>
	<path fill="#FFFFFF" stroke="#FFFFFF" stroke-width="0.5" stroke-miterlimit="10" d="M30.9,18.5c0,5.1,2.4,6.8,5.1,6.8
		c1.8,0,2.9-0.4,3.6-0.8l0.3,1.1c-0.6,0.4-2,0.9-4.1,0.9c-4,0-6.3-3.1-6.3-7.5c0-4.9,2.5-8,6-8c4.3,0,5.2,4.3,5.2,6.6
		c0,0.4,0,0.6,0,0.9H30.9z M39.2,17.3c0.1-2.5-1-5.1-3.9-5.1c-2.8,0-4.1,2.8-4.3,5.1H39.2z"/>
	<path fill="#FFFFFF" stroke="#FFFFFF" stroke-width="0.5" stroke-miterlimit="10" d="M55.4,26.5c-3.3,0-6.1-2.8-6.1-7.7
		c0-5.2,3-7.8,6.3-7.8c3.5,0,6.1,2.8,6.1,7.7C61.7,24.2,58.4,26.5,55.4,26.5L55.4,26.5z M55.5,25.3c2.9,0,4.8-3.2,4.8-6.6
		c0-2.6-1.2-6.5-4.7-6.5c-3.4,0-4.7,3.6-4.7,6.6C50.7,22.1,52.5,25.3,55.5,25.3L55.5,25.3z"/>
	<path fill="#FFFFFF" stroke="#FFFFFF" stroke-width="0.5" stroke-miterlimit="10" d="M64.8,14.8c0-1.5-0.1-2.4-0.1-3.5H66l0.1,2.4
		h0.1c0.7-1.6,2.4-2.8,4.6-2.8c1.5,0,4.7,0.8,4.7,5.9v9.3h-1.4v-9.1c0-2.5-0.8-4.9-3.6-4.9c-1.8,0-3.4,1.4-3.9,3.3
		c-0.1,0.4-0.2,0.9-0.2,1.3v9.3h-1.4V14.8z"/>
	<path fill="#FFFFFF" stroke="#FFFFFF" stroke-width="0.5" stroke-miterlimit="10" d="M79.2,4.3h1.4v21.9h-1.4V4.3z"/>
	<path fill="#FFFFFF" stroke="#FFFFFF" stroke-width="0.5" stroke-miterlimit="10" d="M84.6,11.3l3.4,9.5c0.4,1.1,0.7,2.3,1,3.3h0.1
		c0.3-0.9,0.7-2.1,1-3.3l3.2-9.5h1.5L91,21.6c-1.6,4.5-2.8,7.7-4.7,9.6c-1.1,1.1-2.1,1.6-2.5,1.7l-0.6-1.2c0.7-0.3,1.7-0.9,2.5-1.8
		c0.7-0.8,1.6-2,2.2-3.5c0.1-0.4,0.2-0.5,0.2-0.7c0-0.2,0-0.3-0.1-0.6l-4.9-13.8H84.6z"/>
	<path fill="#FFFFFF" stroke="#FFFFFF" stroke-width="0.5" stroke-miterlimit="10" d="M2.9,39.3h9.4v1.2h-8v8.3h7.3v1.2H4.3v10.1
		H2.9V39.3z"/>
	<path fill="#FFFFFF" stroke="#FFFFFF" stroke-width="0.5" stroke-miterlimit="10" d="M15.9,42.4c-0.6,0-1.1-0.6-1.1-1.2
		c0-0.7,0.5-1.2,1.1-1.2c0.7,0,1.1,0.6,1.1,1.2C17.1,41.9,16.7,42.4,15.9,42.4L15.9,42.4z M15.2,60.2V45.3h1.4v14.9H15.2z"/>
	<path fill="#FFFFFF" stroke="#FFFFFF" stroke-width="0.5" stroke-miterlimit="10" d="M22.8,42.1v3.3h3.8v1.2h-3.8v9.8
		c0,2,0.6,2.9,2,2.9c0.7,0,1.1-0.1,1.4-0.2l0.2,1.1c-0.4,0.2-1,0.3-1.8,0.3c-1,0-1.9-0.3-2.4-1c-0.6-0.7-0.8-1.9-0.8-3.5v-9.5h-2.3
		v-1.2h2.3v-2.7L22.8,42.1z"/>
	<path fill="#FFFFFF" stroke="#FFFFFF" stroke-width="0.5" stroke-miterlimit="10" d="M29.2,48.8c0-1.5-0.1-2.4-0.1-3.5h1.3l0.1,2.4
		h0.1c0.7-1.6,2.4-2.8,4.6-2.8c1.5,0,4.7,0.8,4.7,5.9v9.3h-1.4v-9.1c0-2.5-0.8-4.9-3.6-4.9c-1.8,0-3.4,1.4-3.9,3.3
		c-0.1,0.4-0.2,0.9-0.2,1.3v9.3h-1.4V48.8z"/>
	<path fill="#FFFFFF" stroke="#FFFFFF" stroke-width="0.5" stroke-miterlimit="10" d="M44.2,52.5c0,5.1,2.4,6.8,5.1,6.8
		c1.8,0,2.9-0.4,3.6-0.8l0.3,1.1c-0.6,0.4-2,0.9-4.1,0.9c-4,0-6.3-3.1-6.3-7.5c0-4.9,2.5-8,6-8c4.3,0,5.2,4.3,5.2,6.6
		c0,0.4,0,0.6,0,0.9H44.2z M52.4,51.3c0.1-2.5-1-5.1-3.9-5.1c-2.8,0-4.1,2.8-4.3,5.1H52.4z"/>
	<path fill="#FFFFFF" stroke="#FFFFFF" stroke-width="0.5" stroke-miterlimit="10" d="M56.4,58.3c0.7,0.5,1.8,1,3,1
		c2.1,0,3.2-1.2,3.2-2.8c0-1.6-0.8-2.4-2.8-3.4c-2.2-1-3.6-2.3-3.6-4.1c0-2.2,1.7-3.9,4.3-3.9c1.3,0,2.4,0.4,3,0.9L63,47.1
		c-0.5-0.4-1.4-0.8-2.6-0.8c-1.8,0-2.7,1.2-2.7,2.5c0,1.5,0.9,2.1,2.7,3c2.1,1,3.6,2.2,3.6,4.4c0,2.7-2,4.3-4.7,4.3
		c-1.3,0-2.6-0.4-3.5-1L56.4,58.3z"/>
	<path fill="#FFFFFF" stroke="#FFFFFF" stroke-width="0.5" stroke-miterlimit="10" d="M66.4,58.3c0.7,0.5,1.8,1,3,1
		c2.1,0,3.2-1.2,3.2-2.8c0-1.6-0.8-2.4-2.8-3.4c-2.2-1-3.6-2.3-3.6-4.1c0-2.2,1.7-3.9,4.3-3.9c1.3,0,2.4,0.4,3,0.9L73,47.1
		c-0.5-0.4-1.4-0.8-2.6-0.8c-1.8,0-2.7,1.2-2.7,2.5c0,1.5,0.9,2.1,2.7,3c2.1,1,3.6,2.2,3.6,4.4c0,2.7-2,4.3-4.7,4.3
		c-1.3,0-2.6-0.4-3.5-1L66.4,58.3z"/>
	<path fill="#FFFFFF" stroke="#FFFFFF" stroke-width="0.5" stroke-miterlimit="10" d="M6.5,74.5h-6v-1.2h13.3v1.2h-6v19.7H6.5V74.5z
		"/>
	<path fill="#FFFFFF" stroke="#FFFFFF" stroke-width="0.5" stroke-miterlimit="10" d="M13.7,83.5c0-1.4-0.1-2.9-0.1-4.2h1.3l0.1,2.8
		H15c0.6-1.7,2-3.1,3.9-3.1c0.2,0,0.3,0,0.5,0v1.4c-0.2,0-0.3,0-0.6,0c-2,0-3.4,1.8-3.7,4c-0.1,0.4-0.1,0.9-0.1,1.4v8.4h-1.4V83.5z"
		/>
	<path fill="#FFFFFF" stroke="#FFFFFF" stroke-width="0.5" stroke-miterlimit="10" d="M30.3,90.7c0,1.1,0,2.4,0.2,3.5h-1.3l-0.2-2
		h-0.1c-0.7,1.1-2.1,2.3-4.2,2.3c-2.6,0-4-2-4-4.1c0-3.5,2.9-5.4,8.2-5.4v-0.4c0-1.8-0.3-4.4-3.4-4.3c-1.1,0-2.3,0.3-3.3,1l-0.4-1.1
		c1.1-0.8,2.6-1.2,3.9-1.2c3.6,0,4.7,2.6,4.7,5.5V90.7z M28.8,86.2c-2.6-0.1-6.7,0.3-6.7,4c0,2.2,1.3,3.1,2.7,3.1
		c2.1,0,3.4-1.4,3.8-2.9c0.1-0.3,0.1-0.7,0.1-0.9V86.2z"/>
	<path fill="#FFFFFF" stroke="#FFFFFF" stroke-width="0.5" stroke-miterlimit="10" d="M43.4,93.6c-0.6,0.3-2,0.9-3.8,0.9
		c-3.9,0-6.5-3-6.5-7.6c0-4.5,2.8-7.9,6.9-7.9c1.5,0,2.8,0.4,3.3,0.8L43,81c-0.6-0.3-1.6-0.7-3-0.7c-3.6,0-5.3,3.2-5.3,6.6
		c0,3.9,2.2,6.4,5.3,6.4c1.4,0,2.4-0.4,3.2-0.7L43.4,93.6z"/>
	<path fill="#FFFFFF" stroke="#FFFFFF" stroke-width="0.5" stroke-miterlimit="10" d="M47.5,86.5L47.5,86.5c0.4-0.4,0.9-1.1,1.3-1.6
		l4.7-5.6h1.7l-5.5,6.2l6.2,8.7h-1.7l-5.4-7.8L47.5,88v6.2h-1.4V72.3h1.4V86.5z"/>
	<path fill="#FFFFFF" stroke="#FFFFFF" stroke-width="0.5" stroke-miterlimit="10" d="M57.7,86.5c0,5.1,2.4,6.8,5.1,6.8
		c1.8,0,2.9-0.4,3.6-0.8l0.3,1.1c-0.6,0.4-2,0.9-4.1,0.9c-4,0-6.3-3.1-6.3-7.5c0-4.9,2.5-8,6-8c4.3,0,5.2,4.3,5.2,6.6
		c0,0.4,0,0.6,0,0.9H57.7z M66,85.3c0.1-2.5-1-5.1-3.9-5.1c-2.8,0-4.1,2.8-4.3,5.1H66z"/>
	<path fill="#FFFFFF" stroke="#FFFFFF" stroke-width="0.5" stroke-miterlimit="10" d="M70.4,83.5c0-1.4-0.1-2.9-0.1-4.2h1.3l0.1,2.8
		h0.1c0.6-1.7,2-3.1,3.9-3.1c0.2,0,0.3,0,0.5,0v1.4c-0.2,0-0.3,0-0.6,0c-2,0-3.4,1.8-3.7,4c-0.1,0.4-0.1,0.9-0.1,1.4v8.4h-1.4V83.5z
		"/>
</g>
</svg>
