<?xml version="1.0" encoding="utf-8"?>
<!-- Generator: Adobe Illustrator 19.2.1, SVG Export Plug-In . SVG Version: 6.00 Build 0)  -->
<svg version="1.1" id="Layer_1" xmlns="http://www.w3.org/2000/svg" xmlns:xlink="http://www.w3.org/1999/xlink" x="0px" y="0px"
	 viewBox="0 0 99.9 102.2" enable-background="new 0 0 99.9 102.2" xml:space="preserve">
<g>
	<g>
		<path fill="#FFFFFF" stroke="#FFFFFF" stroke-width="0.5" stroke-miterlimit="10" d="M11,22.7c0,1.1,0,2.4,0.2,3.5H9.9l-0.2-2H9.6
			c-0.7,1.1-2.1,2.3-4.2,2.3c-2.6,0-4-2-4-4.1c0-3.5,2.9-5.4,8.2-5.4v-0.4c0-1.8-0.3-4.4-3.4-4.3c-1.1,0-2.3,0.3-3.3,1l-0.4-1.1
			C3.5,11.4,5,11,6.3,11c3.6,0,4.7,2.6,4.7,5.5V22.7z M9.6,18.2c-2.6-0.1-6.7,0.3-6.7,4c0,2.2,1.3,3.1,2.7,3.1
			c2.1,0,3.4-1.4,3.8-2.9c0.1-0.3,0.1-0.7,0.1-0.9V18.2z"/>
		<path fill="#FFFFFF" stroke="#FFFFFF" stroke-width="0.5" stroke-miterlimit="10" d="M14.8,4.3h1.4v21.9h-1.4V4.3z"/>
		<path fill="#FFFFFF" stroke="#FFFFFF" stroke-width="0.5" stroke-miterlimit="10" d="M20.3,4.3h1.4v21.9h-1.4V4.3z"/>
		<path fill="#FFFFFF" stroke="#FFFFFF" stroke-width="0.5" stroke-miterlimit="10" d="M33.3,8.4c-0.6,0-1.1-0.6-1.1-1.2
			c0-0.7,0.5-1.2,1.1-1.2c0.7,0,1.1,0.6,1.1,1.2C34.5,7.9,34.1,8.4,33.3,8.4L33.3,8.4z M32.7,26.2V11.3h1.4v14.9H32.7z"/>
		<path fill="#FFFFFF" stroke="#FFFFFF" stroke-width="0.5" stroke-miterlimit="10" d="M38.1,14.8c0-1.5-0.1-2.4-0.1-3.5h1.3
			l0.1,2.4h0.1c0.7-1.6,2.4-2.8,4.6-2.8c1.5,0,4.7,0.8,4.7,5.9v9.3h-1.4v-9.1c0-2.5-0.8-4.9-3.6-4.9c-1.8,0-3.4,1.4-3.9,3.3
			c-0.1,0.4-0.2,0.9-0.2,1.3v9.3h-1.4V14.8z"/>
		<path fill="#FFFFFF" stroke="#FFFFFF" stroke-width="0.5" stroke-miterlimit="10" d="M64.3,26.5c-3.3,0-6.1-2.8-6.1-7.7
			c0-5.2,3-7.8,6.3-7.8c3.5,0,6.1,2.8,6.1,7.7C70.7,24.2,67.4,26.5,64.3,26.5L64.3,26.5z M64.4,25.3c2.9,0,4.8-3.2,4.8-6.6
			c0-2.6-1.2-6.5-4.7-6.5c-3.4,0-4.7,3.6-4.7,6.6C59.7,22.1,61.5,25.3,64.4,25.3L64.4,25.3z"/>
		<path fill="#FFFFFF" stroke="#FFFFFF" stroke-width="0.5" stroke-miterlimit="10" d="M73.7,14.8c0-1.5-0.1-2.4-0.1-3.5h1.3
			l0.1,2.4h0.1c0.7-1.6,2.4-2.8,4.6-2.8c1.5,0,4.7,0.8,4.7,5.9v9.3h-1.4v-9.1c0-2.5-0.8-4.9-3.6-4.9c-1.8,0-3.4,1.4-3.9,3.3
			c-0.1,0.4-0.2,0.9-0.2,1.3v9.3h-1.4V14.8z"/>
		<path fill="#FFFFFF" stroke="#FFFFFF" stroke-width="0.5" stroke-miterlimit="10" d="M88.7,18.5c0,5.1,2.4,6.8,5.1,6.8
			c1.8,0,2.9-0.4,3.6-0.8l0.3,1.1c-0.6,0.4-2,0.9-4.1,0.9c-4,0-6.3-3.1-6.3-7.5c0-4.9,2.5-8,6-8c4.3,0,5.2,4.3,5.2,6.6
			c0,0.4,0,0.6,0,0.9H88.7z M97,17.3c0.1-2.5-1-5.1-3.9-5.1c-2.8,0-4.1,2.8-4.3,5.1H97z"/>
		<path fill="#FFFFFF" stroke="#FFFFFF" stroke-width="0.5" stroke-miterlimit="10" d="M2,58.3c0.7,0.5,1.8,1,3,1
			c2.1,0,3.2-1.2,3.2-2.8c0-1.6-0.8-2.4-2.8-3.4c-2.2-1-3.6-2.3-3.6-4.1c0-2.2,1.7-3.9,4.3-3.9c1.3,0,2.4,0.4,3,0.9l-0.6,1.2
			c-0.5-0.4-1.4-0.8-2.6-0.8c-1.8,0-2.7,1.2-2.7,2.5c0,1.5,0.9,2.1,2.7,3c2.1,1,3.6,2.2,3.6,4.4c0,2.7-2,4.3-4.7,4.3
			c-1.3,0-2.6-0.4-3.5-1L2,58.3z"/>
		<path fill="#FFFFFF" stroke="#FFFFFF" stroke-width="0.5" stroke-miterlimit="10" d="M15,42.1v3.3h3.8v1.2H15v9.8
			c0,2,0.6,2.9,2,2.9c0.7,0,1.1-0.1,1.4-0.2l0.2,1.1c-0.4,0.2-1,0.3-1.8,0.3c-1,0-1.9-0.3-2.4-1c-0.6-0.7-0.8-1.9-0.8-3.5v-9.5h-2.3
			v-1.2h2.3v-2.7L15,42.1z"/>
		<path fill="#FFFFFF" stroke="#FFFFFF" stroke-width="0.5" stroke-miterlimit="10" d="M21.9,45.3l3.4,9.5c0.4,1.1,0.7,2.3,1,3.3
			h0.1c0.3-0.9,0.7-2.1,1-3.3l3.2-9.5h1.5l-3.8,10.3c-1.6,4.5-2.8,7.7-4.7,9.6c-1.1,1.1-2.1,1.6-2.5,1.7l-0.6-1.2
			c0.7-0.3,1.7-0.9,2.5-1.8c0.7-0.8,1.6-2,2.2-3.5c0.1-0.4,0.2-0.5,0.2-0.7c0-0.2,0-0.3-0.1-0.6l-4.9-13.8H21.9z"/>
		<path fill="#FFFFFF" stroke="#FFFFFF" stroke-width="0.5" stroke-miterlimit="10" d="M34.4,38.3h1.4v21.9h-1.4V38.3z"/>
		<path fill="#FFFFFF" stroke="#FFFFFF" stroke-width="0.5" stroke-miterlimit="10" d="M40.6,42.4c-0.6,0-1.1-0.6-1.1-1.2
			c0-0.7,0.5-1.2,1.1-1.2c0.7,0,1.1,0.6,1.1,1.2C41.7,41.9,41.3,42.4,40.6,42.4L40.6,42.4z M39.9,60.2V45.3h1.4v14.9H39.9z"/>
		<path fill="#FFFFFF" stroke="#FFFFFF" stroke-width="0.5" stroke-miterlimit="10" d="M44.6,58.3c0.7,0.5,1.8,1,3,1
			c2.1,0,3.2-1.2,3.2-2.8c0-1.6-0.8-2.4-2.8-3.4c-2.2-1-3.6-2.3-3.6-4.1c0-2.2,1.7-3.9,4.3-3.9c1.3,0,2.4,0.4,3,0.9l-0.6,1.2
			c-0.5-0.4-1.4-0.8-2.6-0.8c-1.8,0-2.7,1.2-2.7,2.5c0,1.5,0.9,2.1,2.7,3c2.1,1,3.6,2.2,3.6,4.4c0,2.7-2,4.3-4.7,4.3
			c-1.3,0-2.6-0.4-3.5-1L44.6,58.3z"/>
		<path fill="#FFFFFF" stroke="#FFFFFF" stroke-width="0.5" stroke-miterlimit="10" d="M55,38.3h1.4v9.3h0.1c0.4-0.7,1-1.4,1.8-1.9
			C59,45.3,59.9,45,61,45c1.4,0,4.6,0.8,4.6,5.8v9.4h-1.4v-9.1c0-2.5-0.9-4.8-3.6-4.8c-1.9,0-3.4,1.4-4,3.3
			c-0.1,0.4-0.2,0.8-0.2,1.4v9.3H55V38.3z"/>
		<path fill="#FFFFFF" stroke="#FFFFFF" stroke-width="0.5" stroke-miterlimit="10" d="M13.2,72.3v18.5c0,1,0.1,2.4,0.1,3.3H12
			l-0.1-2.6h-0.1c-0.7,1.5-2.2,2.9-4.7,2.9c-3.2,0-5.7-2.8-5.7-7.5c0-5.1,2.8-8,6-8c2.1,0,3.6,1.1,4.2,2.4h0.1v-9.1H13.2z
			 M11.8,85.1c0-0.4,0-0.9-0.1-1.3c-0.4-2-2-3.6-4.1-3.6c-2.9,0-4.6,2.9-4.6,6.6c0,3.3,1.4,6.4,4.5,6.4c1.7,0,3.5-1.1,4.2-3.7
			c0.1-0.4,0.1-0.7,0.1-1.2V85.1z"/>
		<path fill="#FFFFFF" stroke="#FFFFFF" stroke-width="0.5" stroke-miterlimit="10" d="M17.7,86.5c0,5.1,2.4,6.8,5.1,6.8
			c1.8,0,2.9-0.4,3.6-0.8l0.3,1.1c-0.6,0.4-2,0.9-4.1,0.9c-4,0-6.3-3.1-6.3-7.5c0-4.9,2.5-8,6-8c4.3,0,5.2,4.3,5.2,6.6
			c0,0.4,0,0.6,0,0.9H17.7z M26,85.3c0.1-2.5-1-5.1-3.9-5.1c-2.8,0-4.1,2.8-4.3,5.1H26z"/>
		<path fill="#FFFFFF" stroke="#FFFFFF" stroke-width="0.5" stroke-miterlimit="10" d="M30.1,79.3l3.2,9.3c0.5,1.3,0.9,2.5,1.2,3.8
			h0.1c0.3-1.2,0.8-2.5,1.2-3.8l3.2-9.3h1.5l-5.4,14.9h-1.2l-5.2-14.9H30.1z"/>
		<path fill="#FFFFFF" stroke="#FFFFFF" stroke-width="0.5" stroke-miterlimit="10" d="M43.5,76.4c-0.6,0-1.1-0.6-1.1-1.2
			c0-0.7,0.5-1.2,1.1-1.2c0.7,0,1.1,0.6,1.1,1.2C44.7,75.9,44.2,76.4,43.5,76.4L43.5,76.4z M42.8,94.2V79.3h1.4v14.9H42.8z"/>
		<path fill="#FFFFFF" stroke="#FFFFFF" stroke-width="0.5" stroke-miterlimit="10" d="M57.5,93.6c-0.6,0.3-2,0.9-3.8,0.9
			c-3.9,0-6.5-3-6.5-7.6c0-4.5,2.8-7.9,6.9-7.9c1.5,0,2.8,0.4,3.3,0.8L57.1,81c-0.6-0.3-1.6-0.7-3-0.7c-3.6,0-5.3,3.2-5.3,6.6
			c0,3.9,2.2,6.4,5.3,6.4c1.4,0,2.4-0.4,3.2-0.7L57.5,93.6z"/>
		<path fill="#FFFFFF" stroke="#FFFFFF" stroke-width="0.5" stroke-miterlimit="10" d="M60.1,86.5c0,5.1,2.4,6.8,5.1,6.8
			c1.8,0,2.9-0.4,3.6-0.8l0.3,1.1c-0.6,0.4-2,0.9-4.1,0.9c-4,0-6.3-3.1-6.3-7.5c0-4.9,2.5-8,6-8c4.3,0,5.2,4.3,5.2,6.6
			c0,0.4,0,0.6,0,0.9H60.1z M68.4,85.3c0.1-2.5-1-5.1-3.9-5.1c-2.8,0-4.1,2.8-4.3,5.1H68.4z"/>
		<path fill="#FFFFFF" stroke="#FFFFFF" stroke-width="0.5" stroke-miterlimit="10" d="M73.1,94.5c-0.7,0-1.2-0.6-1.2-1.3
			c0-0.8,0.5-1.4,1.2-1.4c0.7,0,1.2,0.6,1.2,1.4C74.3,93.9,73.8,94.5,73.1,94.5L73.1,94.5z"/>
	</g>
</g>
</svg>
