<?xml version="1.0" encoding="utf-8"?>
<!-- Generator: Adobe Illustrator 19.2.1, SVG Export Plug-In . SVG Version: 6.00 Build 0)  -->
<svg version="1.1" id="Layer_1" xmlns="http://www.w3.org/2000/svg" xmlns:xlink="http://www.w3.org/1999/xlink" x="0px" y="0px"
	 viewBox="0 0 142 136.2" enable-background="new 0 0 142 136.2" xml:space="preserve">
<g>
	<g>
		<path fill="#FFFFFF" stroke="#FFFFFF" stroke-width="0.5" stroke-miterlimit="10" d="M4,5.3v9.2h10.1V5.3h1.4v20.9h-1.4V15.8H4
			v10.4H2.6V5.3H4z"/>
		<path fill="#FFFFFF" stroke="#FFFFFF" stroke-width="0.5" stroke-miterlimit="10" d="M20.3,18.5c0,5.1,2.4,6.8,5.1,6.8
			c1.8,0,2.9-0.4,3.6-0.8l0.3,1.1c-0.6,0.4-2,0.9-4.1,0.9c-4,0-6.3-3.1-6.3-7.5c0-4.9,2.5-8,6-8c4.3,0,5.2,4.3,5.2,6.6
			c0,0.4,0,0.6,0,0.9H20.3z M28.5,17.3c0.1-2.5-1-5.1-3.9-5.1c-2.8,0-4.1,2.8-4.3,5.1H28.5z"/>
		<path fill="#FFFFFF" stroke="#FFFFFF" stroke-width="0.5" stroke-miterlimit="10" d="M33,4.3h1.4v21.9H33V4.3z"/>
		<path fill="#FFFFFF" stroke="#FFFFFF" stroke-width="0.5" stroke-miterlimit="10" d="M38.4,16c0-2.1-0.1-3.5-0.1-4.7h1.4l0.1,2.6
			h0.1c1-1.9,2.7-2.9,4.8-2.9c3.3,0,5.7,2.9,5.7,7.6c0,5.4-2.9,7.9-6.1,7.9c-2,0-3.5-1-4.3-2.5h-0.1v8.2h-1.4V16z M39.9,20.5
			c0,0.4,0,0.8,0.1,1.2c0.6,2.5,2.4,3.7,4.2,3.7c3.1,0,4.7-2.9,4.7-6.7c0-3.3-1.5-6.4-4.6-6.4c-2,0-3.8,1.6-4.3,3.8
			c-0.1,0.4-0.2,0.8-0.2,1.2V20.5z"/>
		<path fill="#FFFFFF" stroke="#FFFFFF" stroke-width="0.5" stroke-miterlimit="10" d="M76.2,16.2c-0.2-3.2-0.4-6.9-0.3-9.2h-0.1
			c-0.7,2.3-1.4,4.7-2.5,7.8l-4,11.3h-0.9l-3.8-11c-1.1-3.3-1.9-5.8-2.5-8.2H62c0,2.5-0.2,6-0.4,9.5L61,26.2h-1.4L61,5.3h1.6l4,11.7
			c0.9,2.7,1.6,4.7,2.1,6.9h0.1c0.5-2.1,1.1-4,2.1-6.9l4.1-11.7h1.7l1.3,20.9h-1.4L76.2,16.2z"/>
		<path fill="#FFFFFF" stroke="#FFFFFF" stroke-width="0.5" stroke-miterlimit="10" d="M86.9,26.5c-3.3,0-6.1-2.8-6.1-7.7
			c0-5.2,3-7.8,6.3-7.8c3.5,0,6.1,2.8,6.1,7.7C93.3,24.2,90,26.5,86.9,26.5L86.9,26.5z M87,25.3c2.9,0,4.8-3.2,4.8-6.6
			c0-2.6-1.2-6.5-4.7-6.5c-3.4,0-4.7,3.6-4.7,6.6C82.3,22.1,84.1,25.3,87,25.3L87,25.3z"/>
		<path fill="#FFFFFF" stroke="#FFFFFF" stroke-width="0.5" stroke-miterlimit="10" d="M96.3,14.8c0-1.5-0.1-2.4-0.1-3.5h1.3
			l0.1,2.4h0.1c0.8-1.6,2.1-2.7,4.3-2.7c1.8,0,3.3,1.1,3.9,3h0.1c0.4-0.9,1-1.5,1.5-2c0.9-0.7,1.8-1.1,3.1-1.1c1.5,0,4.4,0.9,4.4,6
			v9.2h-1.4v-8.9c0-3-1-5-3.5-5c-1.6,0-3,1.3-3.5,2.9c-0.1,0.5-0.2,1-0.2,1.5v9.6H105v-9.5c0-2.5-1-4.4-3.3-4.4
			c-1.8,0-3.2,1.5-3.7,3.3c-0.1,0.4-0.2,0.9-0.2,1.4v9.3h-1.4V14.8z"/>
		<path fill="#FFFFFF" stroke="#FFFFFF" stroke-width="0.5" stroke-miterlimit="10" d="M2,58.3c0.7,0.5,1.8,1,3,1
			c2.1,0,3.2-1.2,3.2-2.8c0-1.6-0.8-2.4-2.8-3.4c-2.2-1-3.6-2.3-3.6-4.1c0-2.2,1.7-3.9,4.3-3.9c1.3,0,2.4,0.4,3,0.9l-0.6,1.2
			c-0.5-0.4-1.4-0.8-2.6-0.8c-1.8,0-2.7,1.2-2.7,2.5c0,1.5,0.9,2.1,2.7,3c2.1,1,3.6,2.2,3.6,4.4c0,2.7-2,4.3-4.7,4.3
			c-1.3,0-2.6-0.4-3.5-1L2,58.3z"/>
		<path fill="#FFFFFF" stroke="#FFFFFF" stroke-width="0.5" stroke-miterlimit="10" d="M15,42.1v3.3h3.8v1.2H15v9.8
			c0,2,0.6,2.9,2,2.9c0.7,0,1.1-0.1,1.4-0.2l0.2,1.1c-0.4,0.2-1,0.3-1.8,0.3c-1,0-1.9-0.3-2.4-1c-0.6-0.7-0.8-1.9-0.8-3.5v-9.5h-2.3
			v-1.2h2.3v-2.7L15,42.1z"/>
		<path fill="#FFFFFF" stroke="#FFFFFF" stroke-width="0.5" stroke-miterlimit="10" d="M29.8,56.7c0,1.1,0,2.4,0.2,3.5h-1.3l-0.2-2
			h-0.1c-0.7,1.1-2.1,2.3-4.2,2.3c-2.6,0-4-2-4-4.1c0-3.5,2.9-5.4,8.2-5.4v-0.4c0-1.8-0.3-4.4-3.4-4.3c-1.1,0-2.3,0.3-3.3,1
			l-0.4-1.1c1.1-0.8,2.6-1.2,3.9-1.2c3.6,0,4.7,2.6,4.7,5.5V56.7z M28.4,52.2c-2.6-0.1-6.7,0.3-6.7,4c0,2.2,1.3,3.1,2.7,3.1
			c2.1,0,3.4-1.4,3.8-2.9c0.1-0.3,0.1-0.7,0.1-0.9V52.2z"/>
		<path fill="#FFFFFF" stroke="#FFFFFF" stroke-width="0.5" stroke-miterlimit="10" d="M33.1,45.3l3.4,9.5c0.4,1.1,0.7,2.3,1,3.3
			h0.1c0.3-0.9,0.7-2.1,1-3.3l3.2-9.5h1.5l-3.8,10.3c-1.6,4.5-2.8,7.7-4.7,9.6c-1.1,1.1-2.1,1.6-2.5,1.7l-0.6-1.2
			c0.7-0.3,1.7-0.9,2.5-1.8c0.7-0.8,1.6-2,2.2-3.5c0.1-0.4,0.2-0.5,0.2-0.7c0-0.2,0-0.3-0.1-0.6l-4.9-13.8H33.1z"/>
		<path fill="#FFFFFF" stroke="#FFFFFF" stroke-width="0.5" stroke-miterlimit="10" d="M60.6,56.7c0,1.1,0,2.4,0.2,3.5h-1.3l-0.2-2
			h-0.1c-0.7,1.1-2.1,2.3-4.2,2.3c-2.6,0-4-2-4-4.1c0-3.5,2.9-5.4,8.2-5.4v-0.4c0-1.8-0.3-4.4-3.4-4.3c-1.1,0-2.3,0.3-3.3,1
			l-0.4-1.1c1.1-0.8,2.6-1.2,3.9-1.2c3.6,0,4.7,2.6,4.7,5.5V56.7z M59.2,52.2c-2.6-0.1-6.7,0.3-6.7,4c0,2.2,1.3,3.1,2.7,3.1
			c2.1,0,3.4-1.4,3.8-2.9c0.1-0.3,0.1-0.7,0.1-0.9V52.2z"/>
		<path fill="#FFFFFF" stroke="#FFFFFF" stroke-width="0.5" stroke-miterlimit="10" d="M73.8,59.6c-0.6,0.3-2,0.9-3.8,0.9
			c-3.9,0-6.5-3-6.5-7.6c0-4.5,2.8-7.9,6.9-7.9c1.5,0,2.8,0.4,3.3,0.8L73.3,47c-0.6-0.3-1.6-0.7-3-0.7c-3.6,0-5.3,3.2-5.3,6.6
			c0,3.9,2.2,6.4,5.3,6.4c1.4,0,2.4-0.4,3.2-0.7L73.8,59.6z"/>
		<path fill="#FFFFFF" stroke="#FFFFFF" stroke-width="0.5" stroke-miterlimit="10" d="M79.3,42.1v3.3h3.8v1.2h-3.8v9.8
			c0,2,0.6,2.9,2,2.9c0.7,0,1.1-0.1,1.4-0.2l0.2,1.1c-0.4,0.2-1,0.3-1.8,0.3c-1,0-1.9-0.3-2.4-1c-0.6-0.7-0.8-1.9-0.8-3.5v-9.5h-2.3
			v-1.2h2.3v-2.7L79.3,42.1z"/>
		<path fill="#FFFFFF" stroke="#FFFFFF" stroke-width="0.5" stroke-miterlimit="10" d="M86.2,42.4c-0.6,0-1.1-0.6-1.1-1.2
			c0-0.7,0.5-1.2,1.1-1.2c0.7,0,1.1,0.6,1.1,1.2C87.4,41.9,87,42.4,86.2,42.4L86.2,42.4z M85.6,60.2V45.3H87v14.9H85.6z"/>
		<path fill="#FFFFFF" stroke="#FFFFFF" stroke-width="0.5" stroke-miterlimit="10" d="M90.9,45.3l3.2,9.3c0.5,1.3,0.9,2.5,1.2,3.8
			h0.1c0.3-1.2,0.8-2.5,1.2-3.8l3.2-9.3h1.5l-5.4,14.9h-1.2l-5.2-14.9H90.9z"/>
		<path fill="#FFFFFF" stroke="#FFFFFF" stroke-width="0.5" stroke-miterlimit="10" d="M103.6,52.5c0,5.1,2.5,6.8,5.1,6.8
			c1.8,0,2.9-0.4,3.6-0.8l0.3,1.1c-0.6,0.4-2,0.9-4.1,0.9c-4,0-6.3-3.1-6.3-7.5c0-4.9,2.5-8,6-8c4.3,0,5.2,4.3,5.2,6.6
			c0,0.4,0,0.6,0,0.9H103.6z M111.8,51.3c0.1-2.5-1-5.1-3.9-5.1c-2.8,0-4.1,2.8-4.3,5.1H111.8z"/>
		<path fill="#FFFFFF" stroke="#FFFFFF" stroke-width="0.5" stroke-miterlimit="10" d="M11,90.7c0,1.1,0,2.4,0.2,3.5H9.9l-0.2-2H9.6
			c-0.7,1.1-2.1,2.3-4.2,2.3c-2.6,0-4-2-4-4.1c0-3.5,2.9-5.4,8.2-5.4v-0.4c0-1.8-0.3-4.4-3.4-4.3c-1.1,0-2.3,0.3-3.3,1l-0.4-1.1
			C3.5,79.4,5,79,6.3,79c3.6,0,4.7,2.6,4.7,5.5V90.7z M9.6,86.2c-2.6-0.1-6.7,0.3-6.7,4c0,2.2,1.3,3.1,2.7,3.1
			c2.1,0,3.4-1.4,3.8-2.9c0.1-0.3,0.1-0.7,0.1-0.9V86.2z"/>
		<path fill="#FFFFFF" stroke="#FFFFFF" stroke-width="0.5" stroke-miterlimit="10" d="M14.9,82.8c0-1.5-0.1-2.4-0.1-3.5h1.3
			l0.1,2.4h0.1c0.7-1.6,2.4-2.8,4.6-2.8c1.5,0,4.7,0.8,4.7,5.9v9.3H24v-9.1c0-2.5-0.8-4.9-3.6-4.9c-1.8,0-3.4,1.4-3.9,3.3
			c-0.1,0.4-0.2,0.9-0.2,1.3v9.3h-1.4V82.8z"/>
		<path fill="#FFFFFF" stroke="#FFFFFF" stroke-width="0.5" stroke-miterlimit="10" d="M40.2,72.3v18.5c0,1,0.1,2.4,0.1,3.3H39
			l-0.1-2.6h-0.1c-0.7,1.5-2.2,2.9-4.7,2.9c-3.2,0-5.7-2.8-5.7-7.5c0-5.1,2.8-8,6-8c2.1,0,3.6,1.1,4.2,2.4h0.1v-9.1H40.2z
			 M38.7,85.1c0-0.4,0-0.9-0.1-1.3c-0.4-2-2-3.6-4.1-3.6c-2.9,0-4.6,2.9-4.6,6.6c0,3.3,1.4,6.4,4.5,6.4c1.7,0,3.5-1.1,4.2-3.7
			c0.1-0.4,0.1-0.7,0.1-1.2V85.1z"/>
		<path fill="#FFFFFF" stroke="#FFFFFF" stroke-width="0.5" stroke-miterlimit="10" d="M3.2,110.4c-0.6,0-1.1-0.6-1.1-1.2
			c0-0.7,0.5-1.2,1.1-1.2c0.7,0,1.1,0.6,1.1,1.2C4.4,109.9,4,110.4,3.2,110.4L3.2,110.4z M2.5,128.2v-14.9H4v14.9H2.5z"/>
		<path fill="#FFFFFF" stroke="#FFFFFF" stroke-width="0.5" stroke-miterlimit="10" d="M7.9,116.8c0-1.5-0.1-2.4-0.1-3.5h1.3
			l0.1,2.4h0.1c0.7-1.6,2.4-2.8,4.6-2.8c1.5,0,4.7,0.8,4.7,5.9v9.3h-1.4v-9.1c0-2.5-0.8-4.9-3.6-4.9c-1.8,0-3.4,1.4-3.9,3.3
			c-0.1,0.4-0.2,0.9-0.2,1.3v9.3H7.9V116.8z"/>
		<path fill="#FFFFFF" stroke="#FFFFFF" stroke-width="0.5" stroke-miterlimit="10" d="M33.3,106.3v18.5c0,1,0.1,2.4,0.1,3.3h-1.3
			l-0.1-2.6h-0.1c-0.7,1.5-2.2,2.9-4.7,2.9c-3.2,0-5.7-2.8-5.7-7.5c0-5.1,2.8-8,6-8c2.1,0,3.6,1.1,4.2,2.4h0.1v-9.1H33.3z
			 M31.8,119.1c0-0.4,0-0.9-0.1-1.3c-0.4-2-2-3.6-4.1-3.6c-2.9,0-4.6,2.9-4.6,6.6c0,3.3,1.4,6.4,4.5,6.4c1.7,0,3.5-1.1,4.2-3.7
			c0.1-0.4,0.1-0.7,0.1-1.2V119.1z"/>
		<path fill="#FFFFFF" stroke="#FFFFFF" stroke-width="0.5" stroke-miterlimit="10" d="M37.8,120.5c0,5.1,2.4,6.8,5.1,6.8
			c1.8,0,2.9-0.4,3.6-0.8l0.3,1.1c-0.6,0.4-2,0.9-4.1,0.9c-4,0-6.3-3.1-6.3-7.5c0-4.9,2.5-8,6-8c4.3,0,5.2,4.3,5.2,6.6
			c0,0.4,0,0.6,0,0.9H37.8z M46.1,119.3c0.1-2.5-1-5.1-3.9-5.1c-2.8,0-4.1,2.8-4.3,5.1H46.1z"/>
		<path fill="#FFFFFF" stroke="#FFFFFF" stroke-width="0.5" stroke-miterlimit="10" d="M50.4,118c0-2.1-0.1-3.5-0.1-4.7h1.4l0.1,2.6
			h0.1c1-1.9,2.7-2.9,4.8-2.9c3.3,0,5.7,2.9,5.7,7.6c0,5.4-2.9,7.9-6.1,7.9c-2,0-3.5-1-4.3-2.5h-0.1v8.2h-1.4V118z M51.8,122.5
			c0,0.4,0,0.8,0.1,1.2c0.6,2.5,2.4,3.7,4.2,3.7c3.1,0,4.7-2.9,4.7-6.7c0-3.3-1.5-6.4-4.6-6.4c-2,0-3.8,1.6-4.3,3.8
			c-0.1,0.4-0.2,0.8-0.2,1.2V122.5z"/>
		<path fill="#FFFFFF" stroke="#FFFFFF" stroke-width="0.5" stroke-miterlimit="10" d="M66,120.5c0,5.1,2.4,6.8,5.1,6.8
			c1.8,0,2.9-0.4,3.6-0.8l0.3,1.1c-0.6,0.4-2,0.9-4.1,0.9c-4,0-6.3-3.1-6.3-7.5c0-4.9,2.5-8,6-8c4.3,0,5.2,4.3,5.2,6.6
			c0,0.4,0,0.6,0,0.9H66z M74.3,119.3c0.1-2.5-1-5.1-3.9-5.1c-2.8,0-4.1,2.8-4.3,5.1H74.3z"/>
		<path fill="#FFFFFF" stroke="#FFFFFF" stroke-width="0.5" stroke-miterlimit="10" d="M78.6,116.8c0-1.5-0.1-2.4-0.1-3.5h1.3
			l0.1,2.4H80c0.7-1.6,2.4-2.8,4.6-2.8c1.5,0,4.7,0.8,4.7,5.9v9.3h-1.4v-9.1c0-2.5-0.8-4.9-3.6-4.9c-1.8,0-3.4,1.4-3.9,3.3
			c-0.1,0.4-0.2,0.9-0.2,1.3v9.3h-1.4V116.8z"/>
		<path fill="#FFFFFF" stroke="#FFFFFF" stroke-width="0.5" stroke-miterlimit="10" d="M103.9,106.3v18.5c0,1,0.1,2.4,0.1,3.3h-1.3
			l-0.1-2.6h-0.1c-0.7,1.5-2.2,2.9-4.7,2.9c-3.2,0-5.7-2.8-5.7-7.5c0-5.1,2.8-8,6-8c2.1,0,3.6,1.1,4.2,2.4h0.1v-9.1H103.9z
			 M102.5,119.1c0-0.4,0-0.9-0.1-1.3c-0.4-2-2-3.6-4.1-3.6c-2.9,0-4.6,2.9-4.6,6.6c0,3.3,1.4,6.4,4.5,6.4c1.7,0,3.5-1.1,4.2-3.7
			c0.1-0.4,0.1-0.7,0.1-1.2V119.1z"/>
		<path fill="#FFFFFF" stroke="#FFFFFF" stroke-width="0.5" stroke-miterlimit="10" d="M108.4,120.5c0,5.1,2.4,6.8,5.1,6.8
			c1.8,0,2.9-0.4,3.6-0.8l0.3,1.1c-0.6,0.4-2,0.9-4.1,0.9c-4,0-6.3-3.1-6.3-7.5c0-4.9,2.5-8,6-8c4.3,0,5.2,4.3,5.2,6.6
			c0,0.4,0,0.6,0,0.9H108.4z M116.7,119.3c0.1-2.5-1-5.1-3.9-5.1c-2.8,0-4.1,2.8-4.3,5.1H116.7z"/>
		<path fill="#FFFFFF" stroke="#FFFFFF" stroke-width="0.5" stroke-miterlimit="10" d="M121.1,116.8c0-1.5-0.1-2.4-0.1-3.5h1.3
			l0.1,2.4h0.1c0.7-1.6,2.4-2.8,4.6-2.8c1.5,0,4.7,0.8,4.7,5.9v9.3h-1.4v-9.1c0-2.5-0.8-4.9-3.6-4.9c-1.8,0-3.4,1.4-3.9,3.3
			c-0.1,0.4-0.2,0.9-0.2,1.3v9.3h-1.4V116.8z"/>
		<path fill="#FFFFFF" stroke="#FFFFFF" stroke-width="0.5" stroke-miterlimit="10" d="M137.3,110.1v3.3h3.8v1.2h-3.8v9.8
			c0,2,0.6,2.9,2,2.9c0.7,0,1.1-0.1,1.4-0.2l0.2,1.1c-0.4,0.2-1,0.3-1.8,0.3c-1,0-1.9-0.3-2.4-1c-0.6-0.7-0.8-1.9-0.8-3.5v-9.5h-2.3
			v-1.2h2.3v-2.7L137.3,110.1z"/>
	</g>
</g>
</svg>
