<?xml version="1.0" encoding="utf-8"?>
<!-- Generator: Adobe Illustrator 19.2.1, SVG Export Plug-In . SVG Version: 6.00 Build 0)  -->
<svg version="1.1" id="Layer_1" xmlns="http://www.w3.org/2000/svg" xmlns:xlink="http://www.w3.org/1999/xlink" x="0px" y="0px"
	 viewBox="0 0 124.3 102.2" enable-background="new 0 0 124.3 102.2" xml:space="preserve">
<g>
	<g>
		<path fill="#FFFFFF" stroke="#FFFFFF" stroke-width="0.5" stroke-miterlimit="10" d="M11,22.7c0,1.1,0,2.4,0.2,3.5H9.9l-0.2-2H9.6
			c-0.7,1.1-2.1,2.3-4.2,2.3c-2.6,0-4-2-4-4.1c0-3.5,2.9-5.4,8.2-5.4v-0.4c0-1.8-0.3-4.4-3.4-4.3c-1.1,0-2.3,0.3-3.3,1l-0.4-1.1
			C3.5,11.4,5,11,6.3,11c3.6,0,4.7,2.6,4.7,5.5V22.7z M9.6,18.2c-2.6-0.1-6.7,0.3-6.7,4c0,2.2,1.3,3.1,2.7,3.1
			c2.1,0,3.4-1.4,3.8-2.9c0.1-0.3,0.1-0.7,0.1-0.9V18.2z"/>
		<path fill="#FFFFFF" stroke="#FFFFFF" stroke-width="0.5" stroke-miterlimit="10" d="M14.9,14.8c0-1.5-0.1-2.4-0.1-3.5h1.3
			l0.1,2.4h0.1c0.7-1.6,2.4-2.8,4.6-2.8c1.5,0,4.7,0.8,4.7,5.9v9.3H24v-9.1c0-2.5-0.8-4.9-3.6-4.9c-1.8,0-3.4,1.4-3.9,3.3
			c-0.1,0.4-0.2,0.9-0.2,1.3v9.3h-1.4V14.8z"/>
		<path fill="#FFFFFF" stroke="#FFFFFF" stroke-width="0.5" stroke-miterlimit="10" d="M40.2,4.3v18.5c0,1,0.1,2.4,0.1,3.3H39
			l-0.1-2.6h-0.1c-0.7,1.5-2.2,2.9-4.7,2.9c-3.2,0-5.7-2.8-5.7-7.5c0-5.1,2.8-8,6-8c2.1,0,3.6,1.1,4.2,2.4h0.1V4.3H40.2z M38.7,17.1
			c0-0.4,0-0.9-0.1-1.3c-0.4-2-2-3.6-4.1-3.6c-2.9,0-4.6,2.9-4.6,6.6c0,3.3,1.4,6.4,4.5,6.4c1.7,0,3.5-1.1,4.2-3.7
			c0.1-0.4,0.1-0.7,0.1-1.2V17.1z"/>
		<path fill="#FFFFFF" stroke="#FFFFFF" stroke-width="0.5" stroke-miterlimit="10" d="M52.4,5.3v13.1c0,5,2.2,6.9,4.9,6.9
			c3.1,0,5.1-2,5.1-6.9V5.3h1.4v13c0,6.1-3.1,8.2-6.6,8.2c-3.3,0-6.3-1.9-6.3-7.9V5.3H52.4z"/>
		<path fill="#FFFFFF" stroke="#FFFFFF" stroke-width="0.5" stroke-miterlimit="10" d="M67.9,15.5c0-1.4-0.1-2.9-0.1-4.2h1.3
			l0.1,2.8h0.1c0.6-1.7,2-3.1,3.9-3.1c0.2,0,0.3,0,0.5,0v1.4c-0.2,0-0.3,0-0.6,0c-2,0-3.4,1.8-3.7,4c-0.1,0.4-0.1,0.9-0.1,1.4v8.4
			h-1.4V15.5z"/>
		<path fill="#FFFFFF" stroke="#FFFFFF" stroke-width="0.5" stroke-miterlimit="10" d="M86.2,24.1c0,4-0.7,5.7-1.8,6.8
			c-1.2,1.2-3,1.7-4.6,1.7c-1.6,0-3.2-0.4-4.2-1.1l0.5-1.2c0.9,0.6,2.2,1.1,3.9,1.1c2.7,0,4.7-1.5,4.7-5.8v-2h-0.1
			c-0.7,1.4-2.2,2.6-4.5,2.6c-3.3,0-5.7-3-5.7-7.3c0-5.4,3.2-7.8,6-7.8c2.6,0,3.8,1.5,4.3,2.6h0.1l0.1-2.3h1.3
			c-0.1,1-0.1,2.2-0.1,4.1V24.1z M84.8,16.8c0-0.5,0-0.9-0.2-1.3c-0.5-1.6-1.8-3.3-4.1-3.3c-2.8,0-4.6,2.6-4.6,6.5
			c0,3.7,1.7,6.3,4.6,6.3c1.6,0,3.3-1,4-3.2c0.2-0.5,0.2-1.1,0.2-1.6V16.8z"/>
		<path fill="#FFFFFF" stroke="#FFFFFF" stroke-width="0.5" stroke-miterlimit="10" d="M90.7,18.5c0,5.1,2.4,6.8,5.1,6.8
			c1.8,0,2.9-0.4,3.6-0.8l0.3,1.1c-0.6,0.4-2,0.9-4.1,0.9c-4,0-6.3-3.1-6.3-7.5c0-4.9,2.5-8,6-8c4.3,0,5.2,4.3,5.2,6.6
			c0,0.4,0,0.6,0,0.9H90.7z M99,17.3c0.1-2.5-1-5.1-3.9-5.1c-2.8,0-4.1,2.8-4.3,5.1H99z"/>
		<path fill="#FFFFFF" stroke="#FFFFFF" stroke-width="0.5" stroke-miterlimit="10" d="M103.3,14.8c0-1.5-0.1-2.4-0.1-3.5h1.3
			l0.1,2.4h0.1c0.7-1.6,2.4-2.8,4.6-2.8c1.5,0,4.7,0.8,4.7,5.9v9.3h-1.4v-9.1c0-2.5-0.8-4.9-3.6-4.9c-1.8,0-3.4,1.4-3.9,3.3
			c-0.1,0.4-0.2,0.9-0.2,1.3v9.3h-1.4V14.8z"/>
		<path fill="#FFFFFF" stroke="#FFFFFF" stroke-width="0.5" stroke-miterlimit="10" d="M119.5,8.1v3.3h3.8v1.2h-3.8v9.8
			c0,2,0.6,2.9,2,2.9c0.7,0,1.1-0.1,1.4-0.2l0.2,1.1c-0.4,0.2-1,0.3-1.8,0.3c-1,0-1.9-0.3-2.4-1c-0.6-0.7-0.8-1.9-0.8-3.5v-9.5h-2.3
			v-1.2h2.3V8.6L119.5,8.1z"/>
		<path fill="#FFFFFF" stroke="#FFFFFF" stroke-width="0.5" stroke-miterlimit="10" d="M2.6,39.6c1.1-0.3,2.7-0.4,4-0.4
			c2.5,0,4.1,0.6,5.2,1.6c0.9,0.9,1.4,2.3,1.4,3.8c0,2.9-1.6,4.6-3.9,5.5v0.1c1.6,0.5,2.6,2.1,3.1,4.6c0.7,3.2,1.1,4.7,1.4,5.5h-1.5
			c-0.3-0.6-0.7-2.5-1.3-5.1c-0.6-3-1.8-4.3-4.5-4.4H4v9.6H2.6V39.6z M4,49.5h2.7c3,0,5.1-1.8,5.1-4.6c0-3.1-2-4.5-5.2-4.5
			c-1.2,0-2,0.1-2.5,0.2V49.5z"/>
		<path fill="#FFFFFF" stroke="#FFFFFF" stroke-width="0.5" stroke-miterlimit="10" d="M16.9,52.5c0,5.1,2.4,6.8,5.1,6.8
			c1.8,0,2.9-0.4,3.6-0.8l0.3,1.1c-0.6,0.4-2,0.9-4.1,0.9c-4,0-6.3-3.1-6.3-7.5c0-4.9,2.5-8,6-8c4.3,0,5.2,4.3,5.2,6.6
			c0,0.4,0,0.6,0,0.9H16.9z M25.1,51.3c0.1-2.5-1-5.1-3.9-5.1c-2.8,0-4.1,2.8-4.3,5.1H25.1z"/>
		<path fill="#FFFFFF" stroke="#FFFFFF" stroke-width="0.5" stroke-miterlimit="10" d="M29.1,58.3c0.7,0.5,1.8,1,3,1
			c2.1,0,3.2-1.2,3.2-2.8c0-1.6-0.8-2.4-2.8-3.4c-2.2-1-3.6-2.3-3.6-4.1c0-2.2,1.7-3.9,4.3-3.9c1.3,0,2.4,0.4,3,0.9l-0.6,1.2
			c-0.5-0.4-1.4-0.8-2.6-0.8c-1.8,0-2.7,1.2-2.7,2.5c0,1.5,0.9,2.1,2.7,3c2.1,1,3.6,2.2,3.6,4.4c0,2.7-2,4.3-4.7,4.3
			c-1.3,0-2.6-0.4-3.5-1L29.1,58.3z"/>
		<path fill="#FFFFFF" stroke="#FFFFFF" stroke-width="0.5" stroke-miterlimit="10" d="M39.5,50c0-2.1-0.1-3.5-0.1-4.7h1.4l0.1,2.6
			h0.1c1-1.9,2.7-2.9,4.8-2.9c3.3,0,5.7,2.9,5.7,7.6c0,5.4-2.9,7.9-6.1,7.9c-2,0-3.5-1-4.3-2.5h-0.1v8.2h-1.4V50z M40.9,54.5
			c0,0.4,0,0.8,0.1,1.2c0.6,2.5,2.4,3.7,4.2,3.7c3.1,0,4.7-2.9,4.7-6.7c0-3.3-1.5-6.4-4.6-6.4c-2,0-3.8,1.6-4.3,3.8
			c-0.1,0.4-0.2,0.8-0.2,1.2V54.5z"/>
		<path fill="#FFFFFF" stroke="#FFFFFF" stroke-width="0.5" stroke-miterlimit="10" d="M59.7,60.5c-3.3,0-6.1-2.8-6.1-7.7
			c0-5.2,3-7.8,6.3-7.8c3.5,0,6.1,2.8,6.1,7.7C66.1,58.2,62.7,60.5,59.7,60.5L59.7,60.5z M59.8,59.3c2.9,0,4.8-3.2,4.8-6.6
			c0-2.6-1.2-6.5-4.7-6.5c-3.4,0-4.7,3.6-4.7,6.6C55.1,56.1,56.9,59.3,59.8,59.3L59.8,59.3z"/>
		<path fill="#FFFFFF" stroke="#FFFFFF" stroke-width="0.5" stroke-miterlimit="10" d="M69.1,48.8c0-1.5-0.1-2.4-0.1-3.5h1.3
			l0.1,2.4h0.1c0.7-1.6,2.4-2.8,4.6-2.8c1.5,0,4.7,0.8,4.7,5.9v9.3h-1.4v-9.1c0-2.5-0.8-4.9-3.6-4.9c-1.8,0-3.4,1.4-3.9,3.3
			c-0.1,0.4-0.2,0.9-0.2,1.3v9.3h-1.4V48.8z"/>
		<path fill="#FFFFFF" stroke="#FFFFFF" stroke-width="0.5" stroke-miterlimit="10" d="M82.9,58.3c0.7,0.5,1.8,1,3,1
			c2.1,0,3.2-1.2,3.2-2.8c0-1.6-0.8-2.4-2.8-3.4c-2.2-1-3.6-2.3-3.6-4.1c0-2.2,1.7-3.9,4.3-3.9c1.3,0,2.4,0.4,3,0.9l-0.6,1.2
			c-0.5-0.4-1.4-0.8-2.6-0.8c-1.8,0-2.7,1.2-2.7,2.5c0,1.5,0.9,2.1,2.7,3c2.1,1,3.6,2.2,3.6,4.4c0,2.7-2,4.3-4.7,4.3
			c-1.3,0-2.6-0.4-3.5-1L82.9,58.3z"/>
		<path fill="#FFFFFF" stroke="#FFFFFF" stroke-width="0.5" stroke-miterlimit="10" d="M94.1,52.5c0,5.1,2.4,6.8,5.1,6.8
			c1.8,0,2.9-0.4,3.6-0.8l0.3,1.1c-0.6,0.4-2,0.9-4.1,0.9c-4,0-6.3-3.1-6.3-7.5c0-4.9,2.5-8,6-8c4.3,0,5.2,4.3,5.2,6.6
			c0,0.4,0,0.6,0,0.9H94.1z M102.4,51.3c0.1-2.5-1-5.1-3.9-5.1c-2.8,0-4.1,2.8-4.3,5.1H102.4z"/>
		<path fill="#FFFFFF" stroke="#FFFFFF" stroke-width="0.5" stroke-miterlimit="10" d="M2.5,72.3H4v9.5H4C5,80,6.6,79,8.8,79
			c3.2,0,5.6,2.9,5.6,7.6c0,5.4-3.1,7.9-5.9,7.9c-2.2,0-3.7-1-4.7-2.8H3.8l-0.1,2.5H2.4c0.1-0.9,0.1-2.4,0.1-3.3V72.3z M4,88.6
			c0,0.3,0,0.7,0.1,1c0.6,2.5,2.4,3.7,4.2,3.7c3.1,0,4.7-2.9,4.7-6.6c0-3.3-1.5-6.4-4.6-6.4c-2,0-3.8,1.6-4.3,3.8
			C4,84.4,4,84.8,4,85.3V88.6z"/>
		<path fill="#FFFFFF" stroke="#FFFFFF" stroke-width="0.5" stroke-miterlimit="10" d="M27.9,90.5c0,1.4,0.1,2.6,0.1,3.7h-1.3
			l-0.1-2.3h-0.1c-0.6,1.1-2.1,2.6-4.5,2.6c-2,0-4.6-1.2-4.6-6.2v-9h1.4V88c0,3,0.8,5.3,3.5,5.3c2.1,0,3.4-1.6,3.9-2.9
			c0.1-0.5,0.2-1,0.2-1.6v-9.5h1.4V90.5z"/>
		<path fill="#FFFFFF" stroke="#FFFFFF" stroke-width="0.5" stroke-miterlimit="10" d="M34,76.1v3.3h3.8v1.2H34v9.8
			c0,2,0.6,2.9,2,2.9c0.7,0,1.1-0.1,1.4-0.2l0.2,1.1c-0.4,0.2-1,0.3-1.8,0.3c-1,0-1.9-0.3-2.4-1c-0.6-0.7-0.8-1.9-0.8-3.5v-9.5h-2.3
			v-1.2h2.3v-2.7L34,76.1z"/>
		<path fill="#FFFFFF" stroke="#FFFFFF" stroke-width="0.5" stroke-miterlimit="10" d="M43.2,76.1v3.3H47v1.2h-3.8v9.8
			c0,2,0.6,2.9,2,2.9c0.7,0,1.1-0.1,1.4-0.2l0.2,1.1c-0.4,0.2-1,0.3-1.8,0.3c-1,0-1.9-0.3-2.4-1c-0.6-0.7-0.8-1.9-0.8-3.5v-9.5h-2.3
			v-1.2h2.3v-2.7L43.2,76.1z"/>
		<path fill="#FFFFFF" stroke="#FFFFFF" stroke-width="0.5" stroke-miterlimit="10" d="M54,94.5c-3.3,0-6.1-2.8-6.1-7.7
			c0-5.2,3-7.8,6.3-7.8c3.5,0,6.1,2.8,6.1,7.7C60.4,92.2,57.1,94.5,54,94.5L54,94.5z M54.1,93.3c2.9,0,4.8-3.2,4.8-6.6
			c0-2.6-1.2-6.5-4.7-6.5c-3.4,0-4.7,3.6-4.7,6.6C49.4,90.1,51.2,93.3,54.1,93.3L54.1,93.3z"/>
		<path fill="#FFFFFF" stroke="#FFFFFF" stroke-width="0.5" stroke-miterlimit="10" d="M63.4,82.8c0-1.5-0.1-2.4-0.1-3.5h1.3
			l0.1,2.4h0.1c0.7-1.6,2.4-2.8,4.6-2.8c1.5,0,4.7,0.8,4.7,5.9v9.3h-1.4v-9.1c0-2.5-0.8-4.9-3.6-4.9c-1.8,0-3.4,1.4-3.9,3.3
			c-0.1,0.4-0.2,0.9-0.2,1.3v9.3h-1.4V82.8z"/>
	</g>
</g>
</svg>
