<?xml version="1.0" encoding="utf-8"?>
<!-- Generator: Adobe Illustrator 19.2.1, SVG Export Plug-In . SVG Version: 6.00 Build 0)  -->
<svg version="1.1" id="Layer_1" xmlns="http://www.w3.org/2000/svg" xmlns:xlink="http://www.w3.org/1999/xlink" x="0px" y="0px"
	 viewBox="0 0 109.5 170.2" enable-background="new 0 0 109.5 170.2" xml:space="preserve">
<g>
	<g>
		<path fill="#FFFFFF" stroke="#FFFFFF" stroke-width="0.5" stroke-miterlimit="10" d="M6.5,6.5h-6V5.3h13.3v1.2h-6v19.7H6.5V6.5z"
			/>
		<path fill="#FFFFFF" stroke="#FFFFFF" stroke-width="0.5" stroke-miterlimit="10" d="M15.9,4.3h1.4v9.3h0.1c0.4-0.7,1-1.4,1.8-1.9
			c0.7-0.5,1.6-0.7,2.7-0.7c1.4,0,4.6,0.8,4.6,5.8v9.4h-1.4v-9.1c0-2.5-0.9-4.8-3.6-4.8c-1.9,0-3.4,1.4-4,3.3
			c-0.1,0.4-0.2,0.8-0.2,1.4v9.3h-1.4V4.3z"/>
		<path fill="#FFFFFF" stroke="#FFFFFF" stroke-width="0.5" stroke-miterlimit="10" d="M30.9,18.5c0,5.1,2.4,6.8,5.1,6.8
			c1.8,0,2.9-0.4,3.6-0.8l0.3,1.1c-0.6,0.4-2,0.9-4.1,0.9c-4,0-6.3-3.1-6.3-7.5c0-4.9,2.5-8,6-8c4.3,0,5.2,4.3,5.2,6.6
			c0,0.4,0,0.6,0,0.9H30.9z M39.2,17.3c0.1-2.5-1-5.1-3.9-5.1c-2.8,0-4.1,2.8-4.3,5.1H39.2z"/>
		<path fill="#FFFFFF" stroke="#FFFFFF" stroke-width="0.5" stroke-miterlimit="10" d="M50.4,5.3h1.4V25h8.4v1.2h-9.8V5.3z"/>
		<path fill="#FFFFFF" stroke="#FFFFFF" stroke-width="0.5" stroke-miterlimit="10" d="M63.3,8.4c-0.6,0-1.1-0.6-1.1-1.2
			c0-0.7,0.5-1.2,1.1-1.2c0.7,0,1.1,0.6,1.1,1.2C64.5,7.9,64.1,8.4,63.3,8.4L63.3,8.4z M62.6,26.2V11.3h1.4v14.9H62.6z"/>
		<path fill="#FFFFFF" stroke="#FFFFFF" stroke-width="0.5" stroke-miterlimit="10" d="M67.9,11.3l3.2,9.3c0.5,1.3,0.9,2.5,1.2,3.8
			h0.1c0.3-1.2,0.8-2.5,1.2-3.8l3.2-9.3h1.5l-5.4,14.9h-1.2l-5.2-14.9H67.9z"/>
		<path fill="#FFFFFF" stroke="#FFFFFF" stroke-width="0.5" stroke-miterlimit="10" d="M80.6,18.5c0,5.1,2.4,6.8,5.1,6.8
			c1.8,0,2.9-0.4,3.6-0.8l0.3,1.1c-0.6,0.4-2,0.9-4.1,0.9c-4,0-6.3-3.1-6.3-7.5c0-4.9,2.5-8,6-8c4.3,0,5.2,4.3,5.2,6.6
			c0,0.4,0,0.6,0,0.9H80.6z M88.9,17.3c0.1-2.5-1-5.1-3.9-5.1c-2.8,0-4.1,2.8-4.3,5.1H88.9z"/>
		<path fill="#FFFFFF" stroke="#FFFFFF" stroke-width="0.5" stroke-miterlimit="10" d="M93.4,4.3h1.4v21.9h-1.4V4.3z"/>
		<path fill="#FFFFFF" stroke="#FFFFFF" stroke-width="0.5" stroke-miterlimit="10" d="M98.7,11.3l3.4,9.5c0.4,1.1,0.7,2.3,1,3.3
			h0.1c0.3-0.9,0.7-2.1,1-3.3l3.2-9.5h1.5l-3.8,10.3c-1.6,4.5-2.8,7.7-4.7,9.6c-1.1,1.1-2.1,1.6-2.5,1.7l-0.6-1.2
			c0.7-0.3,1.7-0.9,2.5-1.8c0.7-0.8,1.6-2,2.2-3.5c0.1-0.4,0.2-0.5,0.2-0.7c0-0.2,0-0.3-0.1-0.6l-4.9-13.8H98.7z"/>
		<path fill="#FFFFFF" stroke="#FFFFFF" stroke-width="0.5" stroke-miterlimit="10" d="M6.3,60.2L1.1,39.3h1.5l2.8,11.6
			C6,53.6,6.6,56.1,7,58.2h0.1c0.3-2.2,1-4.6,1.7-7.3l3.1-11.6h1.4l2.9,11.4c0.6,2.5,1.3,5.1,1.6,7.5h0.1c0.4-2.5,1.1-4.8,1.7-7.4
			l3.1-11.5H24l-5.7,20.9H17l-3-12.1c-0.7-2.9-1.2-5-1.5-7h-0.1c-0.3,2-0.8,4.1-1.6,7L7.6,60.2H6.3z"/>
		<path fill="#FFFFFF" stroke="#FFFFFF" stroke-width="0.5" stroke-miterlimit="10" d="M25.7,52.5c0,5.1,2.5,6.8,5.1,6.8
			c1.8,0,2.9-0.4,3.6-0.8l0.3,1.1c-0.6,0.4-2,0.9-4.1,0.9c-4,0-6.3-3.1-6.3-7.5c0-4.9,2.5-8,6-8c4.3,0,5.2,4.3,5.2,6.6
			c0,0.4,0,0.6,0,0.9H25.7z M34,51.3c0.1-2.5-1-5.1-3.9-5.1c-2.8,0-4.1,2.8-4.3,5.1H34z"/>
		<path fill="#FFFFFF" stroke="#FFFFFF" stroke-width="0.5" stroke-miterlimit="10" d="M46.6,56.7c0,1.1,0,2.4,0.2,3.5h-1.3l-0.2-2
			h-0.1c-0.7,1.1-2.1,2.3-4.2,2.3c-2.6,0-4-2-4-4.1c0-3.5,2.9-5.4,8.2-5.4v-0.4c0-1.8-0.3-4.4-3.4-4.3c-1.1,0-2.3,0.3-3.3,1L38,46.2
			c1.1-0.8,2.6-1.2,3.9-1.2c3.6,0,4.7,2.6,4.7,5.5V56.7z M45.1,52.2c-2.6-0.1-6.7,0.3-6.7,4c0,2.2,1.3,3.1,2.7,3.1
			c2.1,0,3.4-1.4,3.8-2.9c0.1-0.3,0.1-0.7,0.1-0.9V52.2z"/>
		<path fill="#FFFFFF" stroke="#FFFFFF" stroke-width="0.5" stroke-miterlimit="10" d="M50.4,49.5c0-1.4-0.1-2.9-0.1-4.2h1.3
			l0.1,2.8h0.1c0.6-1.7,2-3.1,3.9-3.1c0.2,0,0.3,0,0.5,0v1.4c-0.2,0-0.3,0-0.6,0c-2,0-3.4,1.8-3.7,4c-0.1,0.4-0.1,0.9-0.1,1.4v8.4
			h-1.4V49.5z"/>
		<path fill="#FFFFFF" stroke="#FFFFFF" stroke-width="0.5" stroke-miterlimit="10" d="M67,56.7c0,1.1,0,2.4,0.2,3.5h-1.3l-0.2-2
			h-0.1c-0.7,1.1-2.1,2.3-4.2,2.3c-2.6,0-4-2-4-4.1c0-3.5,2.9-5.4,8.2-5.4v-0.4c0-1.8-0.3-4.4-3.4-4.3c-1.1,0-2.3,0.3-3.3,1
			l-0.4-1.1c1.1-0.8,2.6-1.2,3.9-1.2c3.6,0,4.7,2.6,4.7,5.5V56.7z M65.6,52.2c-2.6-0.1-6.7,0.3-6.7,4c0,2.2,1.3,3.1,2.7,3.1
			c2.1,0,3.4-1.4,3.8-2.9c0.1-0.3,0.1-0.7,0.1-0.9V52.2z"/>
		<path fill="#FFFFFF" stroke="#FFFFFF" stroke-width="0.5" stroke-miterlimit="10" d="M70.9,38.3h1.4v9.5h0.1
			C73.3,46,75,45,77.2,45c3.2,0,5.6,2.9,5.6,7.6c0,5.4-3.1,7.9-5.9,7.9c-2.2,0-3.7-1-4.7-2.8h-0.1l-0.1,2.5h-1.3
			c0.1-0.9,0.1-2.4,0.1-3.3V38.3z M72.3,54.6c0,0.3,0,0.7,0.1,1c0.6,2.5,2.4,3.7,4.2,3.7c3.1,0,4.7-2.9,4.7-6.6
			c0-3.3-1.6-6.4-4.6-6.4c-2,0-3.8,1.6-4.3,3.8c-0.1,0.4-0.2,0.8-0.2,1.2V54.6z"/>
		<path fill="#FFFFFF" stroke="#FFFFFF" stroke-width="0.5" stroke-miterlimit="10" d="M85.9,38.3h1.4v21.9h-1.4V38.3z"/>
		<path fill="#FFFFFF" stroke="#FFFFFF" stroke-width="0.5" stroke-miterlimit="10" d="M92,52.5c0,5.1,2.4,6.8,5.1,6.8
			c1.8,0,2.9-0.4,3.6-0.8l0.3,1.1c-0.6,0.4-2,0.9-4.1,0.9c-4,0-6.3-3.1-6.3-7.5c0-4.9,2.5-8,6-8c4.3,0,5.2,4.3,5.2,6.6
			c0,0.4,0,0.6,0,0.9H92z M100.2,51.3c0.1-2.5-1-5.1-3.9-5.1c-2.8,0-4.1,2.8-4.3,5.1H100.2z"/>
		<path fill="#FFFFFF" stroke="#FFFFFF" stroke-width="0.5" stroke-miterlimit="10" d="M4.3,73.3v13.1c0,5,2.2,6.9,4.9,6.9
			c3.1,0,5.1-2,5.1-6.9V73.3h1.4v13c0,6.1-3.1,8.2-6.6,8.2c-3.3,0-6.3-1.9-6.3-7.9V73.3H4.3z"/>
		<path fill="#FFFFFF" stroke="#FFFFFF" stroke-width="0.5" stroke-miterlimit="10" d="M19.8,83.5c0-1.4-0.1-2.9-0.1-4.2H21l0.1,2.8
			h0.1c0.6-1.7,2-3.1,3.9-3.1c0.2,0,0.3,0,0.5,0v1.4c-0.2,0-0.3,0-0.6,0c-2,0-3.4,1.8-3.7,4c-0.1,0.4-0.1,0.9-0.1,1.4v8.4h-1.4V83.5
			z"/>
		<path fill="#FFFFFF" stroke="#FFFFFF" stroke-width="0.5" stroke-miterlimit="10" d="M38.1,92.1c0,4-0.7,5.7-1.8,6.8
			c-1.2,1.2-3,1.7-4.6,1.7c-1.6,0-3.2-0.4-4.2-1.1l0.5-1.2c0.9,0.6,2.2,1.1,3.9,1.1c2.7,0,4.7-1.5,4.7-5.8v-2h-0.1
			c-0.7,1.4-2.2,2.6-4.5,2.6c-3.3,0-5.7-3-5.7-7.3c0-5.4,3.2-7.8,6-7.8c2.6,0,3.8,1.5,4.3,2.6h0.1l0.1-2.3h1.3
			c-0.1,1-0.1,2.2-0.1,4.1V92.1z M36.7,84.8c0-0.5,0-0.9-0.2-1.3c-0.5-1.6-1.8-3.3-4.1-3.3c-2.8,0-4.6,2.6-4.6,6.5
			c0,3.7,1.7,6.3,4.6,6.3c1.6,0,3.3-1,4-3.2c0.2-0.5,0.2-1.1,0.2-1.6V84.8z"/>
		<path fill="#FFFFFF" stroke="#FFFFFF" stroke-width="0.5" stroke-miterlimit="10" d="M42.6,86.5c0,5.1,2.5,6.8,5.1,6.8
			c1.8,0,2.9-0.4,3.6-0.8l0.3,1.1c-0.6,0.4-2,0.9-4.1,0.9c-4,0-6.3-3.1-6.3-7.5c0-4.9,2.5-8,6-8c4.3,0,5.2,4.3,5.2,6.6
			c0,0.4,0,0.6,0,0.9H42.6z M50.9,85.3c0.1-2.5-1-5.1-3.9-5.1c-2.8,0-4.1,2.8-4.3,5.1H50.9z"/>
		<path fill="#FFFFFF" stroke="#FFFFFF" stroke-width="0.5" stroke-miterlimit="10" d="M55.2,82.8c0-1.5-0.1-2.4-0.1-3.5h1.3
			l0.1,2.4h0.1c0.7-1.6,2.4-2.8,4.6-2.8c1.5,0,4.7,0.8,4.7,5.9v9.3h-1.4v-9.1c0-2.5-0.8-4.9-3.6-4.9c-1.8,0-3.4,1.4-3.9,3.3
			c-0.1,0.4-0.2,0.9-0.2,1.3v9.3h-1.4V82.8z"/>
		<path fill="#FFFFFF" stroke="#FFFFFF" stroke-width="0.5" stroke-miterlimit="10" d="M71.4,76.1v3.3h3.8v1.2h-3.8v9.8
			c0,2,0.6,2.9,2,2.9c0.7,0,1.1-0.1,1.4-0.2l0.2,1.1c-0.4,0.2-1,0.3-1.8,0.3c-1,0-1.9-0.3-2.4-1c-0.6-0.7-0.8-1.9-0.8-3.5v-9.5h-2.3
			v-1.2H70v-2.7L71.4,76.1z"/>
		<path fill="#FFFFFF" stroke="#FFFFFF" stroke-width="0.5" stroke-miterlimit="10" d="M2.9,107.6c1.1-0.3,2.7-0.4,4-0.4
			c2.5,0,4.1,0.6,5.2,1.6c0.9,0.9,1.4,2.3,1.4,3.8c0,2.9-1.6,4.6-3.9,5.5v0.1c1.6,0.5,2.6,2.1,3.1,4.6c0.7,3.2,1.1,4.7,1.4,5.5h-1.5
			c-0.3-0.6-0.7-2.5-1.3-5.1c-0.6-3-1.8-4.3-4.5-4.4H4.3v9.6H2.9V107.6z M4.3,117.5H7c3,0,5.1-1.8,5.1-4.6c0-3.1-2-4.5-5.2-4.5
			c-1.2,0-2,0.1-2.5,0.2V117.5z"/>
		<path fill="#FFFFFF" stroke="#FFFFFF" stroke-width="0.5" stroke-miterlimit="10" d="M17.2,120.5c0,5.1,2.4,6.8,5.1,6.8
			c1.8,0,2.9-0.4,3.6-0.8l0.3,1.1c-0.6,0.4-2,0.9-4.1,0.9c-4,0-6.3-3.1-6.3-7.5c0-4.9,2.5-8,6-8c4.3,0,5.2,4.3,5.2,6.6
			c0,0.4,0,0.6,0,0.9H17.2z M25.4,119.3c0.1-2.5-1-5.1-3.9-5.1c-2.8,0-4.1,2.8-4.3,5.1H25.4z"/>
		<path fill="#FFFFFF" stroke="#FFFFFF" stroke-width="0.5" stroke-miterlimit="10" d="M29.4,126.3c0.7,0.5,1.8,1,3,1
			c2.1,0,3.2-1.2,3.2-2.8c0-1.6-0.8-2.4-2.8-3.4c-2.2-1-3.6-2.3-3.6-4.1c0-2.2,1.7-3.9,4.3-3.9c1.3,0,2.4,0.4,3,0.9l-0.6,1.2
			c-0.5-0.4-1.4-0.8-2.6-0.8c-1.8,0-2.7,1.2-2.7,2.5c0,1.5,0.9,2.1,2.7,3c2.1,1,3.6,2.2,3.6,4.4c0,2.7-2,4.3-4.7,4.3
			c-1.3,0-2.6-0.4-3.5-1L29.4,126.3z"/>
		<path fill="#FFFFFF" stroke="#FFFFFF" stroke-width="0.5" stroke-miterlimit="10" d="M39.8,118c0-2.1-0.1-3.5-0.1-4.7h1.4l0.1,2.6
			h0.1c1-1.9,2.7-2.9,4.8-2.9c3.3,0,5.7,2.9,5.7,7.6c0,5.4-2.9,7.9-6.1,7.9c-2,0-3.5-1-4.3-2.5h-0.1v8.2h-1.4V118z M41.3,122.5
			c0,0.4,0,0.8,0.1,1.2c0.6,2.5,2.4,3.7,4.2,3.7c3.1,0,4.7-2.9,4.7-6.7c0-3.3-1.5-6.4-4.6-6.4c-2,0-3.8,1.6-4.3,3.8
			c-0.1,0.4-0.2,0.8-0.2,1.2V122.5z"/>
		<path fill="#FFFFFF" stroke="#FFFFFF" stroke-width="0.5" stroke-miterlimit="10" d="M60.1,128.5c-3.3,0-6.1-2.8-6.1-7.7
			c0-5.2,3-7.8,6.3-7.8c3.5,0,6.1,2.8,6.1,7.7C66.4,126.2,63.1,128.5,60.1,128.5L60.1,128.5z M60.1,127.3c2.9,0,4.8-3.2,4.8-6.6
			c0-2.6-1.2-6.5-4.7-6.5c-3.4,0-4.7,3.6-4.7,6.6C55.4,124.1,57.2,127.3,60.1,127.3L60.1,127.3z"/>
		<path fill="#FFFFFF" stroke="#FFFFFF" stroke-width="0.5" stroke-miterlimit="10" d="M69.4,116.8c0-1.5-0.1-2.4-0.1-3.5h1.3
			l0.1,2.4h0.1c0.7-1.6,2.4-2.8,4.6-2.8c1.5,0,4.7,0.8,4.7,5.9v9.3h-1.4v-9.1c0-2.5-0.8-4.9-3.6-4.9c-1.8,0-3.4,1.4-3.9,3.3
			c-0.1,0.4-0.2,0.9-0.2,1.3v9.3h-1.4V116.8z"/>
		<path fill="#FFFFFF" stroke="#FFFFFF" stroke-width="0.5" stroke-miterlimit="10" d="M83.3,126.3c0.7,0.5,1.8,1,3,1
			c2.1,0,3.2-1.2,3.2-2.8c0-1.6-0.8-2.4-2.8-3.4c-2.2-1-3.6-2.3-3.6-4.1c0-2.2,1.7-3.9,4.3-3.9c1.3,0,2.4,0.4,3,0.9l-0.6,1.2
			c-0.5-0.4-1.4-0.8-2.6-0.8c-1.8,0-2.7,1.2-2.7,2.5c0,1.5,0.9,2.1,2.7,3c2.1,1,3.6,2.2,3.6,4.4c0,2.7-2,4.3-4.7,4.3
			c-1.3,0-2.6-0.4-3.5-1L83.3,126.3z"/>
		<path fill="#FFFFFF" stroke="#FFFFFF" stroke-width="0.5" stroke-miterlimit="10" d="M94.4,120.5c0,5.1,2.4,6.8,5.1,6.8
			c1.8,0,2.9-0.4,3.6-0.8l0.3,1.1c-0.6,0.4-2,0.9-4.1,0.9c-4,0-6.3-3.1-6.3-7.5c0-4.9,2.5-8,6-8c4.3,0,5.2,4.3,5.2,6.6
			c0,0.4,0,0.6,0,0.9H94.4z M102.7,119.3c0.1-2.5-1-5.1-3.9-5.1c-2.8,0-4.1,2.8-4.3,5.1H102.7z"/>
		<path fill="#FFFFFF" stroke="#FFFFFF" stroke-width="0.5" stroke-miterlimit="10" d="M13.5,140.3v18.5c0,1,0.1,2.4,0.1,3.3h-1.3
			l-0.1-2.6h-0.1c-0.7,1.5-2.2,2.9-4.7,2.9c-3.2,0-5.7-2.8-5.7-7.5c0-5.1,2.8-8,6-8c2.1,0,3.6,1.1,4.2,2.4h0.1v-9.1H13.5z
			 M12.1,153.1c0-0.4,0-0.9-0.1-1.3c-0.4-2-2-3.6-4.1-3.6c-2.9,0-4.6,2.9-4.6,6.6c0,3.3,1.4,6.4,4.5,6.4c1.7,0,3.5-1.1,4.2-3.7
			c0.1-0.4,0.1-0.7,0.1-1.2V153.1z"/>
		<path fill="#FFFFFF" stroke="#FFFFFF" stroke-width="0.5" stroke-miterlimit="10" d="M18,154.5c0,5.1,2.4,6.8,5.1,6.8
			c1.8,0,2.9-0.4,3.6-0.8l0.3,1.1c-0.6,0.4-2,0.9-4.1,0.9c-4,0-6.3-3.1-6.3-7.5c0-4.9,2.5-8,6-8c4.3,0,5.2,4.3,5.2,6.6
			c0,0.4,0,0.6,0,0.9H18z M26.3,153.3c0.1-2.5-1-5.1-3.9-5.1c-2.8,0-4.1,2.8-4.3,5.1H26.3z"/>
		<path fill="#FFFFFF" stroke="#FFFFFF" stroke-width="0.5" stroke-miterlimit="10" d="M30.4,147.3l3.2,9.3c0.5,1.3,0.9,2.5,1.2,3.8
			h0.1c0.3-1.2,0.8-2.5,1.2-3.8l3.2-9.3h1.5l-5.4,14.9h-1.2l-5.2-14.9H30.4z"/>
		<path fill="#FFFFFF" stroke="#FFFFFF" stroke-width="0.5" stroke-miterlimit="10" d="M43.8,144.4c-0.6,0-1.1-0.6-1.1-1.2
			c0-0.7,0.5-1.2,1.1-1.2c0.7,0,1.1,0.6,1.1,1.2C45,143.9,44.6,144.4,43.8,144.4L43.8,144.4z M43.1,162.2v-14.9h1.4v14.9H43.1z"/>
		<path fill="#FFFFFF" stroke="#FFFFFF" stroke-width="0.5" stroke-miterlimit="10" d="M57.8,161.6c-0.6,0.3-2,0.9-3.8,0.9
			c-3.9,0-6.5-3-6.5-7.6c0-4.5,2.8-7.9,6.9-7.9c1.5,0,2.8,0.4,3.3,0.8l-0.5,1.2c-0.6-0.3-1.6-0.7-3-0.7c-3.6,0-5.3,3.2-5.3,6.6
			c0,3.9,2.2,6.4,5.3,6.4c1.4,0,2.4-0.4,3.2-0.7L57.8,161.6z"/>
		<path fill="#FFFFFF" stroke="#FFFFFF" stroke-width="0.5" stroke-miterlimit="10" d="M60.4,154.5c0,5.1,2.4,6.8,5.1,6.8
			c1.8,0,2.9-0.4,3.6-0.8l0.3,1.1c-0.6,0.4-2,0.9-4.1,0.9c-4,0-6.3-3.1-6.3-7.5c0-4.9,2.5-8,6-8c4.3,0,5.2,4.3,5.2,6.6
			c0,0.4,0,0.6,0,0.9H60.4z M68.7,153.3c0.1-2.5-1-5.1-3.9-5.1c-2.8,0-4.1,2.8-4.3,5.1H68.7z"/>
		<path fill="#FFFFFF" stroke="#FFFFFF" stroke-width="0.5" stroke-miterlimit="10" d="M73.4,162.5c-0.7,0-1.2-0.6-1.2-1.3
			c0-0.8,0.5-1.4,1.2-1.4c0.7,0,1.2,0.6,1.2,1.4C74.6,161.9,74.2,162.5,73.4,162.5L73.4,162.5z"/>
	</g>
</g>
</svg>
