<?xml version="1.0" encoding="utf-8"?>
<!-- Generator: Adobe Illustrator 19.2.1, SVG Export Plug-In . SVG Version: 6.00 Build 0)  -->
<svg version="1.1" id="Layer_1" xmlns="http://www.w3.org/2000/svg" xmlns:xlink="http://www.w3.org/1999/xlink" x="0px" y="0px"
	 viewBox="0 0 169.5 19.4" enable-background="new 0 0 169.5 19.4" xml:space="preserve">
<path fill="#FFFFFF" d="M4,14.8h0.9V1.6h4V0.8H0v0.8h4V14.8L4,14.8z M10,14.8h0.9V8.7c0-0.4,0-0.7,0.1-1c0.4-1.2,1.4-2.2,2.6-2.2
	c1.8,0,2.4,1.6,2.4,3.4v5.9h0.9v-6c0-3.7-2.2-4.2-3-4.2c-0.7,0-1.2,0.2-1.8,0.6c-0.5,0.4-0.9,0.9-1.2,1.4h0V0H10V14.8L10,14.8z
	 M26.3,9.7c0-0.2,0-0.3,0-0.6c0-1.4-0.5-4.5-3.4-4.5C20.7,4.6,19,6.7,19,10c0,2.9,1.6,5,4.1,5c1.5,0,2.4-0.4,2.7-0.6l-0.2-0.8
	c-0.5,0.3-1.1,0.6-2.4,0.6c-1.8,0-3.3-1.3-3.3-4.4H26.3L26.3,9.7z M19.9,8.9c0.2-1.5,1-3.5,2.9-3.5c2.1,0,2.6,2.1,2.6,3.5H19.9
	L19.9,8.9z M35.7,15c1.9,0,4.1-1.6,4.1-5.3c0-3.1-1.6-5.1-4-5.1c-2.2,0-4.1,1.9-4.1,5.3C31.7,13,33.5,15,35.7,15L35.7,15L35.7,15z
	 M35.8,14.2c-1.8,0-3.2-1.9-3.2-4.4c0-2.1,1-4.4,3.2-4.4c2.3,0,3.2,2.5,3.2,4.3C39,12.3,37.6,14.2,35.8,14.2L35.8,14.2L35.8,14.2z
	 M42.1,14.8H43V8.6c0-0.3,0.1-0.6,0.1-0.9c0.3-1.3,1.4-2.3,2.6-2.3c1.8,0,2.4,1.6,2.4,3.5v5.9H49v-6c0-3.7-2.2-4.2-3-4.2
	c-1.4,0-2.5,0.9-3,2h0l-0.1-1.8H42c0.1,0.8,0.1,1.5,0.1,2.4V14.8L42.1,14.8z M51.8,14.8h0.9V0h-0.9V14.8L51.8,14.8z M54.4,4.8
	l3.2,9.3c0.1,0.2,0.1,0.4,0.1,0.4c0,0.1,0,0.2-0.1,0.4c-0.4,1.2-1,2-1.4,2.5c-0.5,0.6-1.1,0.9-1.5,1.1l0.3,0.8
	c0.2-0.1,0.8-0.4,1.5-1c1.1-1.1,1.9-3,2.9-6.1L62,4.8H61l-2.1,6.5c-0.3,0.8-0.5,1.6-0.7,2.2h0c-0.2-0.6-0.4-1.4-0.6-2.1l-2.3-6.5
	H54.4L54.4,4.8z M67.6,14.8h0.9V8h4.7V7.2h-4.7V1.6h5.2V0.8h-6V14.8L67.6,14.8z M76.3,14.8v-10h-0.9v10H76.3L76.3,14.8z M75.8,2.8
	c0.4,0,0.7-0.4,0.7-0.9c0-0.5-0.3-0.9-0.7-0.9c-0.4,0-0.7,0.4-0.7,0.9C75.1,2.4,75.4,2.8,75.8,2.8L75.8,2.8L75.8,2.8z M79.5,3v1.8
	H78v0.8h1.5v6.3c0,1,0.1,1.9,0.5,2.4c0.3,0.5,0.9,0.7,1.5,0.7c0.5,0,0.9-0.1,1.2-0.2L82.6,14c-0.2,0.1-0.5,0.1-1,0.1
	c-0.9,0-1.3-0.8-1.3-2.1V5.6h2.5V4.8h-2.5V2.6L79.5,3L79.5,3z M84.8,14.8h0.9V8.6c0-0.3,0.1-0.6,0.1-0.9c0.3-1.3,1.4-2.3,2.6-2.3
	c1.8,0,2.4,1.6,2.4,3.5v5.9h0.9v-6c0-3.7-2.2-4.2-3-4.2c-1.4,0-2.5,0.9-3,2h0l-0.1-1.8h-0.8c0.1,0.8,0.1,1.5,0.1,2.4V14.8L84.8,14.8
	z M101,9.7c0-0.2,0-0.3,0-0.6c0-1.4-0.5-4.5-3.4-4.5c-2.2,0-3.9,2.1-3.9,5.4c0,2.9,1.6,5,4.1,5c1.5,0,2.4-0.4,2.7-0.6l-0.2-0.8
	c-0.5,0.3-1.1,0.6-2.4,0.6c-1.8,0-3.3-1.3-3.3-4.4H101L101,9.7z M94.6,8.9c0.2-1.5,1-3.5,2.9-3.5c2.1,0,2.6,2.1,2.6,3.5H94.6
	L94.6,8.9z M102.6,14.3c0.6,0.4,1.4,0.7,2.2,0.7c1.8,0,2.9-1.1,2.9-2.8c0-1.5-0.8-2.3-2.2-3c-1.2-0.6-1.8-1-1.8-2
	c0-0.9,0.6-1.7,1.7-1.7c0.9,0,1.4,0.4,1.7,0.6l0.3-0.8c-0.4-0.4-1.1-0.6-1.9-0.6c-1.7,0-2.7,1.2-2.7,2.7c0,1.2,0.8,2.1,2.2,2.7
	c1.2,0.6,1.8,1.2,1.8,2.3c0,1-0.7,1.9-2,1.9c-0.8,0-1.5-0.4-2-0.7L102.6,14.3L102.6,14.3z M109.3,14.3c0.6,0.4,1.4,0.7,2.2,0.7
	c1.8,0,2.9-1.1,2.9-2.8c0-1.5-0.8-2.3-2.2-3c-1.2-0.6-1.8-1-1.8-2c0-0.9,0.6-1.7,1.7-1.7c0.9,0,1.4,0.4,1.7,0.6l0.3-0.8
	c-0.4-0.4-1.1-0.6-1.9-0.6c-1.7,0-2.7,1.2-2.7,2.7c0,1.2,0.8,2.1,2.2,2.7c1.2,0.6,1.8,1.2,1.8,2.3c0,1-0.7,1.9-2,1.9
	c-0.8,0-1.5-0.4-2-0.7L109.3,14.3L109.3,14.3z M122.3,14.8h0.9V1.6h4V0.8h-8.8v0.8h4V14.8L122.3,14.8z M127.6,14.8h0.9V9.3
	c0-0.3,0-0.7,0.1-1c0.2-1.6,1.1-2.8,2.3-2.8c0.2,0,0.3,0,0.4,0V4.6c-0.1,0-0.2,0-0.4,0c-1.2,0-2.1,1-2.5,2.2h-0.1l0-2h-0.8
	c0.1,1,0.1,2,0.1,3V14.8L127.6,14.8z M138.4,8.5c0-1.8-0.5-3.9-3-3.9c-0.8,0-1.8,0.2-2.6,0.9l0.3,0.7c0.6-0.5,1.4-0.7,2.2-0.7
	c2.1,0,2.2,2,2.2,2.9v0.3c-3.5,0-5.3,1.4-5.3,3.7c0,1.3,0.8,2.7,2.6,2.7c1.4,0,2.4-0.9,2.8-1.7h0l0.1,1.4h0.8
	c-0.1-0.8-0.1-1.6-0.1-2.4V8.5L138.4,8.5z M137.5,11.6c0,0.2,0,0.4-0.1,0.6c-0.3,1-1.1,2-2.6,2c-0.9,0-1.7-0.6-1.7-2.1
	c0-2.4,2.5-2.7,4.4-2.7V11.6L137.5,11.6z M147,13.6c-0.5,0.2-1.1,0.6-2.2,0.6c-2,0-3.4-1.7-3.4-4.3c0-2.3,1.2-4.4,3.5-4.4
	c1,0,1.6,0.3,2,0.6l0.3-0.8c-0.3-0.3-1.2-0.6-2.3-0.6c-2.6,0-4.5,2.1-4.5,5.3c0,3,1.7,5.1,4.2,5.1c1.3,0,2.2-0.4,2.6-0.6L147,13.6
	L147,13.6z M150.1,0h-0.9v14.8h0.9v-4.2l0.9-1.1l3.5,5.2h1l-4-5.8l3.5-4.1h-1L151,8.5c-0.3,0.3-0.6,0.8-0.8,1.1h0V0L150.1,0z
	 M163.7,9.7c0-0.2,0-0.3,0-0.6c0-1.4-0.5-4.5-3.4-4.5c-2.2,0-3.9,2.1-3.9,5.4c0,2.9,1.6,5,4.1,5c1.5,0,2.4-0.4,2.7-0.6l-0.2-0.8
	c-0.5,0.3-1.1,0.6-2.4,0.6c-1.8,0-3.3-1.3-3.3-4.4H163.7L163.7,9.7z M157.3,8.9c0.2-1.5,1-3.5,2.9-3.5c2.1,0,2.6,2.1,2.6,3.5H157.3
	L157.3,8.9z M165.9,14.8h0.9V9.3c0-0.3,0-0.7,0.1-1c0.2-1.6,1.1-2.8,2.3-2.8c0.2,0,0.3,0,0.4,0V4.6c-0.1,0-0.2,0-0.4,0
	c-1.2,0-2.1,1-2.5,2.2h-0.1l0-2h-0.8c0.1,1,0.1,2,0.1,3V14.8L165.9,14.8z"/>
</svg>
