<?xml version="1.0" encoding="utf-8"?>
<!-- Generator: Adobe Illustrator 19.2.1, SVG Export Plug-In . SVG Version: 6.00 Build 0)  -->
<svg version="1.1" id="Layer_1" xmlns="http://www.w3.org/2000/svg" xmlns:xlink="http://www.w3.org/1999/xlink" x="0px" y="0px"
	 viewBox="0 0 167 19.4" enable-background="new 0 0 167 19.4" xml:space="preserve">
<path fill="#FFFFFF" d="M6.2,8.5c0-1.8-0.5-3.9-3-3.9c-0.8,0-1.8,0.2-2.6,0.9l0.3,0.7c0.6-0.5,1.4-0.7,2.2-0.7c2.1,0,2.2,2,2.2,2.9
	v0.3C1.8,8.6,0,10,0,12.3C0,13.6,0.8,15,2.6,15c1.4,0,2.4-0.9,2.8-1.7h0l0.1,1.4h0.8c-0.1-0.8-0.1-1.6-0.1-2.4V8.5L6.2,8.5z
	 M5.3,11.6c0,0.2,0,0.4-0.1,0.6c-0.3,1-1.1,2-2.6,2c-0.9,0-1.7-0.6-1.7-2.1c0-2.4,2.5-2.7,4.4-2.7V11.6L5.3,11.6z M9,14.8h0.9V0H9
	V14.8L9,14.8z M12.8,14.8h0.9V0h-0.9V14.8L12.8,14.8z M21.5,14.8v-10h-0.9v10H21.5L21.5,14.8z M21,2.8c0.4,0,0.7-0.4,0.7-0.9
	c0-0.5-0.3-0.9-0.7-0.9c-0.4,0-0.7,0.4-0.7,0.9C20.3,2.4,20.6,2.8,21,2.8L21,2.8L21,2.8z M24.4,14.8h0.9V8.6c0-0.3,0.1-0.6,0.1-0.9
	c0.3-1.3,1.4-2.3,2.6-2.3c1.8,0,2.4,1.6,2.4,3.5v5.9h0.9v-6c0-3.7-2.2-4.2-3-4.2c-1.4,0-2.5,0.9-3,2h0l-0.1-1.8h-0.8
	c0.1,0.8,0.1,1.5,0.1,2.4V14.8L24.4,14.8z M41.3,15c1.9,0,4.1-1.6,4.1-5.3c0-3.1-1.6-5.1-4-5.1c-2.2,0-4.1,1.9-4.1,5.3
	C37.3,13,39.1,15,41.3,15L41.3,15L41.3,15z M41.4,14.2c-1.8,0-3.2-1.9-3.2-4.4c0-2.1,1-4.4,3.2-4.4c2.3,0,3.2,2.5,3.2,4.3
	C44.6,12.3,43.2,14.2,41.4,14.2L41.4,14.2L41.4,14.2z M47.7,14.8h0.9V8.6c0-0.3,0.1-0.6,0.1-0.9c0.3-1.3,1.4-2.3,2.6-2.3
	c1.8,0,2.4,1.6,2.4,3.5v5.9h0.9v-6c0-3.7-2.2-4.2-3-4.2c-1.4,0-2.5,0.9-3,2h0l-0.1-1.8h-0.8c0.1,0.8,0.1,1.5,0.1,2.4V14.8L47.7,14.8
	z M63.9,9.7c0-0.2,0-0.3,0-0.6c0-1.4-0.5-4.5-3.4-4.5c-2.2,0-3.9,2.1-3.9,5.4c0,2.9,1.6,5,4.1,5c1.5,0,2.4-0.4,2.7-0.6l-0.2-0.8
	c-0.5,0.3-1.1,0.6-2.4,0.6c-1.8,0-3.3-1.3-3.3-4.4H63.9L63.9,9.7z M57.6,8.9c0.2-1.5,1-3.5,2.9-3.5c2.1,0,2.6,2.1,2.6,3.5H57.6
	L57.6,8.9z M69.5,14.3c0.6,0.4,1.4,0.7,2.2,0.7c1.8,0,2.9-1.1,2.9-2.8c0-1.5-0.8-2.3-2.2-3c-1.2-0.6-1.8-1-1.8-2
	c0-0.9,0.6-1.7,1.7-1.7c0.9,0,1.4,0.4,1.7,0.6l0.3-0.8c-0.4-0.4-1.1-0.6-1.9-0.6c-1.7,0-2.7,1.2-2.7,2.7c0,1.2,0.8,2.1,2.2,2.7
	c1.2,0.6,1.8,1.2,1.8,2.3c0,1-0.7,1.9-2,1.9c-0.8,0-1.5-0.4-2-0.7L69.5,14.3L69.5,14.3z M77.2,3v1.8h-1.5v0.8h1.5v6.3
	c0,1,0.1,1.9,0.5,2.4c0.3,0.5,0.9,0.7,1.5,0.7c0.5,0,0.9-0.1,1.2-0.2L80.4,14c-0.2,0.1-0.5,0.1-1,0.1c-0.9,0-1.3-0.8-1.3-2.1V5.6
	h2.5V4.8h-2.5V2.6L77.2,3L77.2,3z M81.4,4.8l3.2,9.3c0.1,0.2,0.1,0.4,0.1,0.4c0,0.1,0,0.2-0.1,0.4c-0.4,1.2-1,2-1.4,2.5
	c-0.5,0.6-1.1,0.9-1.5,1.1l0.3,0.8c0.2-0.1,0.8-0.4,1.5-1c1.1-1.1,1.9-3,2.9-6.1L89,4.8h-0.9L86,11.3c-0.3,0.8-0.5,1.6-0.7,2.2h0
	c-0.2-0.6-0.4-1.4-0.6-2.1l-2.3-6.5H81.4L81.4,4.8z M90.7,14.8h0.9V0h-0.9V14.8L90.7,14.8z M95.4,14.8v-10h-0.9v10H95.4L95.4,14.8z
	 M94.9,2.8c0.4,0,0.7-0.4,0.7-0.9c0-0.5-0.3-0.9-0.7-0.9c-0.4,0-0.7,0.4-0.7,0.9C94.2,2.4,94.5,2.8,94.9,2.8L94.9,2.8L94.9,2.8z
	 M97.6,14.3c0.6,0.4,1.4,0.7,2.2,0.7c1.8,0,2.9-1.1,2.9-2.8c0-1.5-0.8-2.3-2.2-3c-1.2-0.6-1.8-1-1.8-2c0-0.9,0.6-1.7,1.7-1.7
	c0.9,0,1.4,0.4,1.7,0.6l0.3-0.8c-0.4-0.4-1.1-0.6-1.9-0.6c-1.7,0-2.7,1.2-2.7,2.7c0,1.2,0.8,2.1,2.2,2.7c1.2,0.6,1.8,1.2,1.8,2.3
	c0,1-0.7,1.9-2,1.9c-0.8,0-1.5-0.4-2-0.7L97.6,14.3L97.6,14.3z M105,14.8h0.9V8.7c0-0.4,0-0.7,0.1-1c0.4-1.2,1.4-2.2,2.6-2.2
	c1.8,0,2.4,1.6,2.4,3.4v5.9h0.9v-6c0-3.7-2.2-4.2-3-4.2c-0.7,0-1.2,0.2-1.8,0.6c-0.5,0.4-0.9,0.9-1.2,1.4h0V0H105V14.8L105,14.8z
	 M124.8,0v6.3h0c-0.4-0.9-1.3-1.8-2.8-1.8c-2.1,0-3.9,2.1-3.9,5.4c0,3,1.6,5,3.7,5c1.6,0,2.6-1,3.1-2.1h0l0.1,1.9h0.8
	c-0.1-0.7-0.1-1.6-0.1-2.3V0H124.8L124.8,0z M124.8,10.8c0,0.3,0,0.6-0.1,0.8c-0.4,1.6-1.5,2.6-2.8,2.6c-2.1,0-3-2.1-3-4.3
	c0-2.6,1.2-4.5,3.1-4.5c1.4,0,2.4,1.1,2.7,2.4c0.1,0.3,0.1,0.6,0.1,0.9V10.8L124.8,10.8z M135.1,9.7c0-0.2,0-0.3,0-0.6
	c0-1.4-0.5-4.5-3.4-4.5c-2.2,0-3.9,2.1-3.9,5.4c0,2.9,1.6,5,4.1,5c1.5,0,2.4-0.4,2.7-0.6l-0.2-0.8c-0.5,0.3-1.1,0.6-2.4,0.6
	c-1.8,0-3.3-1.3-3.3-4.4H135.1L135.1,9.7z M128.7,8.9c0.2-1.5,1-3.5,2.9-3.5c2.1,0,2.6,2.1,2.6,3.5H128.7L128.7,8.9z M136.2,4.8
	l3.4,10h0.8l3.5-10H143l-2.1,6.2c-0.3,1-0.7,1.8-0.9,2.7h0c-0.2-0.9-0.5-1.7-0.9-2.7l-2-6.2H136.2L136.2,4.8z M146.5,14.8v-10h-0.9
	v10H146.5L146.5,14.8z M146,2.8c0.4,0,0.7-0.4,0.7-0.9c0-0.5-0.3-0.9-0.7-0.9c-0.4,0-0.7,0.4-0.7,0.9C145.3,2.4,145.6,2.8,146,2.8
	L146,2.8L146,2.8z M155.1,13.6c-0.5,0.2-1.1,0.6-2.2,0.6c-2,0-3.4-1.7-3.4-4.3c0-2.3,1.2-4.4,3.5-4.4c1,0,1.6,0.3,2,0.6l0.3-0.8
	c-0.3-0.3-1.2-0.6-2.3-0.6c-2.6,0-4.5,2.1-4.5,5.3c0,3,1.7,5.1,4.2,5.1c1.3,0,2.2-0.4,2.6-0.6L155.1,13.6L155.1,13.6z M164,9.7
	c0-0.2,0-0.3,0-0.6c0-1.4-0.5-4.5-3.4-4.5c-2.2,0-3.9,2.1-3.9,5.4c0,2.9,1.6,5,4.1,5c1.5,0,2.4-0.4,2.7-0.6l-0.2-0.8
	c-0.5,0.3-1.1,0.6-2.4,0.6c-1.8,0-3.3-1.3-3.3-4.4H164L164,9.7z M157.6,8.9c0.2-1.5,1-3.5,2.9-3.5c2.1,0,2.6,2.1,2.6,3.5H157.6
	L157.6,8.9z M166.3,15c0.5,0,0.7-0.4,0.7-0.9c0-0.5-0.3-0.9-0.7-0.9c-0.4,0-0.7,0.4-0.7,0.9C165.5,14.6,165.9,15,166.3,15L166.3,15
	L166.3,15z"/>
</svg>
