<?xml version="1.0" encoding="utf-8"?>
<!-- Generator: Adobe Illustrator 19.2.1, SVG Export Plug-In . SVG Version: 6.00 Build 0)  -->
<svg version="1.1" id="Layer_1" xmlns="http://www.w3.org/2000/svg" xmlns:xlink="http://www.w3.org/1999/xlink" x="0px" y="0px"
	 viewBox="0 0 91.6 94.3" enable-background="new 0 0 91.6 94.3" xml:space="preserve">
<path fill="#FFFFFF" d="M3.6,13.4h0.8V1.4H8V0.7H0v0.8h3.6V13.4L3.6,13.4z M8.9,13.4h0.8V7.9c0-0.4,0-0.6,0.1-0.9
	c0.3-1.1,1.3-2,2.4-2c1.6,0,2.2,1.5,2.2,3.1v5.3h0.8V7.9c0-3.4-2-3.8-2.7-3.8c-0.6,0-1.1,0.2-1.6,0.5C10.3,5,9.9,5.5,9.7,6h0V0H8.9
	V13.4L8.9,13.4z M23.4,8.8c0-0.2,0-0.3,0-0.5c0-1.3-0.5-4.1-3.1-4.1c-2,0-3.5,1.9-3.5,4.9c0,2.7,1.4,4.5,3.7,4.5
	c1.4,0,2.2-0.4,2.5-0.6l-0.2-0.7c-0.4,0.2-1,0.5-2.2,0.5c-1.6,0-3-1.1-3-4H23.4L23.4,8.8z M17.7,8c0.1-1.4,0.9-3.2,2.6-3.2
	c1.9,0,2.4,1.9,2.3,3.2H17.7L17.7,8z M33.8,7.7c0-1.6-0.4-3.6-2.7-3.6c-0.7,0-1.6,0.2-2.3,0.8L29,5.6c0.6-0.5,1.3-0.7,2-0.7
	c1.9,0,2,1.8,2,2.7v0.2c-3.2,0-4.8,1.2-4.8,3.3c0,1.2,0.7,2.5,2.3,2.5c1.3,0,2.1-0.8,2.5-1.5h0l0.1,1.3h0.7
	c-0.1-0.7-0.1-1.4-0.1-2.1V7.7L33.8,7.7z M33,10.5c0,0.2,0,0.4-0.1,0.5c-0.3,0.9-1,1.8-2.3,1.8c-0.8,0-1.6-0.6-1.6-1.9
	c0-2.2,2.3-2.5,4-2.4V10.5L33,10.5z M36.1,13.4h0.8V0h-0.8V13.4L36.1,13.4z M39.5,13.4h0.8V0h-0.8V13.4L39.5,13.4z M41.9,7.8v0.8
	h3.9V7.8H41.9L41.9,7.8z M48.3,13.4v-9h-0.8v9H48.3L48.3,13.4z M47.9,2.5c0.4,0,0.6-0.4,0.6-0.8c0-0.4-0.3-0.8-0.6-0.8
	s-0.6,0.4-0.6,0.8C47.2,2.2,47.5,2.5,47.9,2.5L47.9,2.5L47.9,2.5z M50.7,13.4h0.8V7.8c0-0.3,0-0.6,0.1-0.8c0.3-1.2,1.3-2.1,2.4-2.1
	c1.6,0,2.2,1.5,2.2,3.1v5.3h0.8V8c0-3.4-2-3.8-2.8-3.8c-1.3,0-2.3,0.8-2.7,1.8h0l0-1.6h-0.7c0,0.7,0.1,1.3,0.1,2.2V13.4L50.7,13.4z
	 M58.5,7.8v0.8h3.9V7.8H58.5L58.5,7.8z M67.4,13.6c1.7,0,3.7-1.4,3.7-4.8c0-2.8-1.5-4.6-3.7-4.6c-1.9,0-3.7,1.7-3.7,4.8
	C63.7,11.8,65.3,13.6,67.4,13.6L67.4,13.6L67.4,13.6z M67.4,12.8c-1.6,0-2.8-1.7-2.8-3.9c0-1.9,0.9-4,2.9-4c2.1,0,2.9,2.3,2.9,3.9
	C70.3,11.1,69,12.8,67.4,12.8L67.4,12.8L67.4,12.8z M72.9,13.4h0.8V7.8c0-0.3,0-0.6,0.1-0.8c0.3-1.2,1.3-2.1,2.4-2.1
	c1.6,0,2.2,1.5,2.2,3.1v5.3h0.8V8c0-3.4-2-3.8-2.8-3.8c-1.3,0-2.3,0.8-2.7,1.8h0l0-1.6h-0.7c0,0.7,0.1,1.3,0.1,2.2V13.4L72.9,13.4z
	 M87.5,8.8c0-0.2,0-0.3,0-0.5c0-1.3-0.5-4.1-3.1-4.1c-2,0-3.5,1.9-3.5,4.9c0,2.7,1.4,4.5,3.7,4.5c1.4,0,2.2-0.4,2.5-0.6l-0.2-0.7
	c-0.4,0.2-1,0.5-2.2,0.5c-1.6,0-3-1.1-3-4H87.5L87.5,8.8z M81.7,8c0.1-1.4,0.9-3.2,2.6-3.2c1.9,0,2.4,1.9,2.3,3.2H81.7L81.7,8z
	 M1.5,33.5h0.8v-6.1h4.3v-0.8H2.3v-5H7v-0.8H1.5V33.5L1.5,33.5z M9.2,33.5v-9H8.4v9H9.2L9.2,33.5z M8.8,22.7c0.4,0,0.6-0.4,0.6-0.8
	c0-0.4-0.3-0.8-0.6-0.8c-0.4,0-0.6,0.4-0.6,0.8S8.4,22.7,8.8,22.7L8.8,22.7L8.8,22.7z M12,22.9v1.7h-1.3v0.7H12V31
	c0,0.9,0.1,1.7,0.5,2.2c0.3,0.4,0.8,0.6,1.3,0.6c0.5,0,0.8-0.1,1.1-0.2l-0.1-0.7c-0.2,0.1-0.5,0.1-0.9,0.1c-0.8,0-1.1-0.7-1.1-1.9
	v-5.9H15v-0.7h-2.2v-2L12,22.9L12,22.9z M16.6,33.5h0.8v-5.6c0-0.3,0-0.6,0.1-0.8c0.3-1.2,1.3-2.1,2.4-2.1c1.6,0,2.2,1.5,2.2,3.1
	v5.3h0.8v-5.4c0-3.4-2-3.8-2.8-3.8c-1.3,0-2.3,0.8-2.7,1.8h0l0-1.6h-0.7c0,0.7,0.1,1.3,0.1,2.2V33.5L16.6,33.5z M31.1,28.9
	c0-0.2,0-0.3,0-0.5c0-1.3-0.5-4.1-3.1-4.1c-2,0-3.5,1.9-3.5,4.9c0,2.7,1.4,4.5,3.7,4.5c1.4,0,2.2-0.4,2.5-0.6l-0.2-0.7
	c-0.4,0.2-1,0.5-2.2,0.5c-1.6,0-3-1.1-3-4H31.1L31.1,28.9z M25.4,28.2c0.1-1.4,0.9-3.2,2.6-3.2c1.9,0,2.4,1.9,2.3,3.2H25.4
	L25.4,28.2z M32.4,33.1c0.5,0.4,1.2,0.6,2,0.6c1.6,0,2.7-1,2.7-2.6c0-1.4-0.8-2.1-2-2.7c-1.1-0.5-1.6-0.9-1.6-1.8
	c0-0.8,0.5-1.6,1.5-1.6c0.8,0,1.3,0.3,1.6,0.5l0.3-0.7c-0.4-0.3-1-0.6-1.7-0.6c-1.5,0-2.4,1.1-2.4,2.4c0,1.1,0.7,1.9,2,2.5
	c1.1,0.5,1.7,1.1,1.7,2c0,0.9-0.6,1.7-1.8,1.7c-0.7,0-1.3-0.3-1.8-0.6L32.4,33.1L32.4,33.1z M38.3,33.1c0.5,0.4,1.2,0.6,2,0.6
	c1.6,0,2.7-1,2.7-2.6c0-1.4-0.8-2.1-2-2.7c-1.1-0.5-1.6-0.9-1.6-1.8c0-0.8,0.5-1.6,1.5-1.6c0.8,0,1.3,0.3,1.6,0.5l0.3-0.7
	c-0.4-0.3-1-0.6-1.7-0.6c-1.5,0-2.4,1.1-2.4,2.4c0,1.1,0.7,1.9,2,2.5c1.1,0.5,1.7,1.1,1.7,2c0,0.9-0.6,1.7-1.8,1.7
	c-0.7,0-1.3-0.3-1.8-0.6L38.3,33.1L38.3,33.1z M49.9,33.5h0.8V21.6h3.6v-0.8h-8v0.8h3.6V33.5L49.9,33.5z M54.5,33.5h0.8v-5
	c0-0.3,0-0.6,0.1-0.9c0.2-1.4,1-2.5,2.1-2.5c0.1,0,0.3,0,0.4,0v-0.8c-0.1,0-0.2,0-0.3,0c-1.1,0-1.9,0.9-2.2,2h0l0-1.8h-0.7
	c0,0.9,0.1,1.8,0.1,2.7V33.5L54.5,33.5z M64.1,27.9c0-1.6-0.4-3.6-2.7-3.6c-0.7,0-1.6,0.2-2.3,0.8l0.2,0.7c0.6-0.5,1.3-0.7,2-0.7
	c1.9,0,2,1.8,2,2.7V28c-3.2,0-4.8,1.2-4.8,3.3c0,1.2,0.7,2.5,2.3,2.5c1.3,0,2.1-0.8,2.5-1.5h0l0.1,1.3h0.7c-0.1-0.7-0.1-1.4-0.1-2.1
	V27.9L64.1,27.9z M63.3,30.6c0,0.2,0,0.4-0.1,0.5c-0.3,0.9-1,1.8-2.3,1.8c-0.8,0-1.6-0.6-1.6-1.9c0-2.2,2.3-2.5,4-2.4V30.6
	L63.3,30.6z M71.7,32.4c-0.4,0.2-1,0.5-2,0.5c-1.8,0-3.1-1.5-3.1-3.9c0-2.1,1.1-4,3.2-4c0.9,0,1.5,0.3,1.8,0.5l0.3-0.7
	c-0.3-0.2-1.1-0.6-2.1-0.6c-2.3,0-4,1.9-4,4.8c0,2.7,1.5,4.6,3.8,4.6c1.1,0,2-0.4,2.3-0.6L71.7,32.4L71.7,32.4z M74.4,20.2h-0.8
	v13.4h0.8v-3.8l0.8-1l3.2,4.7h0.9l-3.6-5.3l3.2-3.7H78l-2.8,3.3c-0.2,0.3-0.6,0.7-0.8,1h0V20.2L74.4,20.2z M86.5,28.9
	c0-0.2,0-0.3,0-0.5c0-1.3-0.5-4.1-3.1-4.1c-2,0-3.5,1.9-3.5,4.9c0,2.7,1.4,4.5,3.7,4.5c1.4,0,2.2-0.4,2.5-0.6l-0.2-0.7
	c-0.4,0.2-1,0.5-2.2,0.5c-1.6,0-3-1.1-3-4H86.5L86.5,28.9z M80.7,28.2c0.1-1.4,0.9-3.2,2.6-3.2c1.9,0,2.4,1.9,2.3,3.2H80.7
	L80.7,28.2z M88.3,33.5h0.8v-5c0-0.3,0-0.6,0.1-0.9c0.2-1.4,1-2.5,2.1-2.5c0.1,0,0.3,0,0.4,0v-0.8c-0.1,0-0.2,0-0.3,0
	c-1.1,0-1.9,0.9-2.2,2h0l0-1.8h-0.7c0,0.9,0.1,1.8,0.1,2.7V33.5L88.3,33.5z M6.4,48c0-1.6-0.4-3.6-2.7-3.6c-0.7,0-1.6,0.2-2.3,0.8
	l0.2,0.7c0.6-0.5,1.3-0.7,2-0.7c1.9,0,2,1.8,2,2.7v0.2c-3.2,0-4.8,1.2-4.8,3.3c0,1.2,0.7,2.5,2.3,2.5c1.3,0,2.1-0.8,2.5-1.5h0
	l0.1,1.3h0.7c-0.1-0.7-0.1-1.4-0.1-2.1V48L6.4,48z M5.6,50.8c0,0.2,0,0.4-0.1,0.5c-0.3,0.9-1,1.8-2.3,1.8c-0.8,0-1.6-0.6-1.6-1.9
	c0-2.2,2.3-2.5,4-2.4V50.8L5.6,50.8z M8.8,53.7h0.8v-5.6c0-0.3,0-0.6,0.1-0.8c0.3-1.2,1.3-2.1,2.4-2.1c1.6,0,2.2,1.5,2.2,3.1v5.3H15
	v-5.4c0-3.4-2-3.8-2.8-3.8c-1.3,0-2.3,0.8-2.7,1.8h0l0-1.6H8.7c0,0.7,0.1,1.3,0.1,2.2V53.7L8.8,53.7z M22.9,40.4v5.7h0
	c-0.3-0.8-1.2-1.6-2.6-1.6c-1.9,0-3.6,1.9-3.5,4.9c0,2.7,1.4,4.5,3.4,4.5c1.5,0,2.4-0.9,2.8-1.9h0l0.1,1.7h0.7
	c0-0.6-0.1-1.4-0.1-2.1V40.4H22.9L22.9,40.4z M22.9,50.1c0,0.3,0,0.5-0.1,0.8c-0.3,1.5-1.4,2.4-2.5,2.4c-1.9,0-2.8-1.9-2.8-3.9
	c0-2.3,1.1-4,2.8-4c1.3,0,2.2,1,2.5,2.2c0.1,0.3,0.1,0.6,0.1,0.8V50.1L22.9,50.1z M29.7,41.1v7.7c0,3.9,1.8,5.2,3.7,5.2
	c2.1,0,3.9-1.4,3.9-5.3v-7.6h-0.8v7.7c0,3.1-1.3,4.5-3.1,4.5c-1.6,0-2.9-1.2-2.9-4.5v-7.7H29.7L29.7,41.1z M39.8,53.7h0.8v-5
	c0-0.3,0-0.6,0.1-0.9c0.2-1.4,1-2.5,2.1-2.5c0.1,0,0.3,0,0.4,0v-0.8c-0.1,0-0.2,0-0.3,0c-1.1,0-1.9,0.9-2.2,2h0l0-1.8h-0.7
	c0,0.9,0.1,1.8,0.1,2.7V53.7L39.8,53.7z M50.6,47c0-0.9,0-1.7,0.1-2.3h-0.7l0,1.5h0c-0.3-0.8-1.1-1.7-2.7-1.7
	c-1.7,0-3.5,1.7-3.5,4.8c0,2.5,1.4,4.4,3.4,4.4c1.4,0,2.3-0.8,2.7-1.7h0v1.3c0,2.7-1.2,3.6-2.8,3.6c-1,0-1.8-0.3-2.3-0.8l-0.3,0.7
	c0.6,0.5,1.6,0.8,2.5,0.8c0.9,0,1.9-0.3,2.7-1.1c0.7-0.7,1.1-1.9,1.1-4.2V47L50.6,47z M49.8,50c0,0.3,0,0.7-0.1,1
	c-0.4,1.3-1.4,2-2.4,2c-1.8,0-2.8-1.7-2.8-3.8c0-2.4,1.1-3.9,2.8-3.9c1.3,0,2.1,1,2.4,2c0.1,0.3,0.1,0.5,0.1,0.9V50L49.8,50z
	 M59,49.1c0-0.2,0-0.3,0-0.5c0-1.3-0.5-4.1-3.1-4.1c-2,0-3.5,1.9-3.5,4.9c0,2.7,1.4,4.5,3.7,4.5c1.4,0,2.2-0.4,2.5-0.6l-0.2-0.7
	c-0.4,0.2-1,0.5-2.2,0.5c-1.6,0-3-1.1-3-4H59L59,49.1z M53.2,48.4c0.1-1.4,0.9-3.2,2.6-3.2c1.9,0,2.4,1.9,2.3,3.2H53.2L53.2,48.4z
	 M60.9,53.7h0.8v-5.6c0-0.3,0-0.6,0.1-0.8c0.3-1.2,1.3-2.1,2.4-2.1c1.6,0,2.2,1.5,2.2,3.1v5.3h0.8v-5.4c0-3.4-2-3.8-2.8-3.8
	c-1.3,0-2.3,0.8-2.7,1.8h0l0-1.6h-0.7c0,0.7,0.1,1.3,0.1,2.2V53.7L60.9,53.7z M69.8,43v1.7h-1.3v0.7h1.3v5.7c0,0.9,0.1,1.7,0.5,2.2
	c0.3,0.4,0.8,0.6,1.3,0.6c0.5,0,0.8-0.1,1.1-0.2L72.6,53c-0.2,0.1-0.5,0.1-0.9,0.1c-0.8,0-1.1-0.7-1.1-1.9v-5.9h2.2v-0.7h-2.2v-2
	L69.8,43L69.8,43z M1.5,73.9h0.8v-5.8H4c1.5,0.1,2.1,0.9,2.5,2.7c0.3,1.6,0.5,2.7,0.7,3.1H8c-0.2-0.5-0.4-1.4-0.8-3.4
	c-0.3-1.4-0.8-2.4-1.7-2.7v0c1.3-0.5,2.2-1.6,2.2-3.3c0-0.9-0.3-1.7-0.8-2.3c-0.6-0.7-1.5-1.1-3-1.1c-0.8,0-1.7,0.1-2.4,0.3V73.9
	L1.5,73.9z M2.3,62c0.3-0.1,0.8-0.2,1.6-0.2c1.7,0,3,0.8,3,2.7c0,1.7-1.1,2.8-2.8,2.8H2.3V62L2.3,62z M15.6,69.3c0-0.2,0-0.3,0-0.5
	c0-1.3-0.5-4.1-3.1-4.1c-2,0-3.5,1.9-3.5,4.9c0,2.7,1.4,4.5,3.7,4.5c1.4,0,2.2-0.4,2.5-0.6L15,72.8c-0.4,0.2-1,0.5-2.2,0.5
	c-1.6,0-3-1.1-3-4H15.6L15.6,69.3z M9.9,68.6c0.1-1.4,0.9-3.2,2.6-3.2c1.9,0,2.4,1.9,2.3,3.2H9.9L9.9,68.6z M16.9,73.5
	c0.5,0.4,1.2,0.6,2,0.6c1.6,0,2.7-1,2.7-2.6c0-1.4-0.8-2.1-2-2.7c-1.1-0.5-1.6-0.9-1.6-1.8c0-0.8,0.5-1.6,1.5-1.6
	c0.8,0,1.3,0.3,1.6,0.5l0.3-0.7c-0.4-0.3-1-0.6-1.7-0.6c-1.5,0-2.4,1.1-2.4,2.4c0,1.1,0.7,1.9,2,2.5c1.1,0.5,1.7,1.1,1.7,2
	c0,0.9-0.6,1.7-1.8,1.7c-0.7,0-1.3-0.3-1.8-0.6L16.9,73.5L16.9,73.5z M23.4,77.6h0.8v-5.2h0c0.5,1.1,1.5,1.7,2.7,1.7
	c1.9,0,3.6-1.7,3.6-4.9c0-2.7-1.4-4.6-3.4-4.6c-1.4,0-2.3,0.7-2.9,1.9h0l0-1.7h-0.8c0,0.9,0.1,1.7,0.1,2.9V77.6L23.4,77.6z
	 M24.2,68.6c0-0.2,0.1-0.5,0.1-0.8c0.3-1.5,1.5-2.4,2.6-2.4c1.8,0,2.8,1.8,2.8,3.9c0,2.4-1,4.1-2.8,4.1c-1.2,0-2.3-0.9-2.6-2.3
	c0-0.2-0.1-0.5-0.1-0.7V68.6L24.2,68.6z M35.3,74.1c1.7,0,3.7-1.4,3.7-4.8c0-2.8-1.5-4.6-3.7-4.6c-1.9,0-3.7,1.7-3.7,4.8
	C31.6,72.3,33.2,74.1,35.3,74.1L35.3,74.1L35.3,74.1z M35.3,73.4c-1.6,0-2.8-1.7-2.8-3.9c0-1.9,0.9-4,2.9-4c2.1,0,2.9,2.3,2.9,3.9
	C38.2,71.7,36.9,73.4,35.3,73.4L35.3,73.4L35.3,73.4z M40.8,73.9h0.8v-5.6c0-0.3,0-0.6,0.1-0.8c0.3-1.2,1.3-2.1,2.4-2.1
	c1.6,0,2.2,1.5,2.2,3.1v5.3H47v-5.4c0-3.4-2-3.8-2.8-3.8c-1.3,0-2.3,0.8-2.7,1.8h0l0-1.6h-0.7c0,0.7,0.1,1.3,0.1,2.2V73.9L40.8,73.9
	z M48.9,73.5c0.5,0.4,1.2,0.6,2,0.6c1.6,0,2.7-1,2.7-2.6c0-1.4-0.8-2.1-2-2.7c-1.1-0.5-1.6-0.9-1.6-1.8c0-0.8,0.5-1.6,1.5-1.6
	c0.8,0,1.3,0.3,1.6,0.5l0.3-0.7c-0.4-0.3-1-0.6-1.7-0.6c-1.5,0-2.4,1.1-2.4,2.4c0,1.1,0.7,1.9,2,2.5c1.1,0.5,1.7,1.1,1.7,2
	c0,0.9-0.6,1.7-1.8,1.7c-0.7,0-1.3-0.3-1.8-0.6L48.9,73.5L48.9,73.5z M61.3,69.3c0-0.2,0-0.3,0-0.5c0-1.3-0.5-4.1-3.1-4.1
	c-2,0-3.5,1.9-3.5,4.9c0,2.7,1.4,4.5,3.7,4.5c1.4,0,2.2-0.4,2.5-0.6l-0.2-0.7c-0.4,0.2-1,0.5-2.2,0.5c-1.6,0-3-1.1-3-4H61.3
	L61.3,69.3z M55.6,68.6c0.1-1.4,0.9-3.2,2.6-3.2c1.9,0,2.4,1.9,2.3,3.2H55.6L55.6,68.6z M7,80.7v5.7h0c-0.3-0.8-1.2-1.6-2.6-1.6
	c-1.9,0-3.6,1.9-3.5,4.9c0,2.7,1.4,4.5,3.4,4.5c1.5,0,2.4-0.9,2.8-1.9h0l0.1,1.7h0.7c0-0.6-0.1-1.4-0.1-2.1V80.7H7L7,80.7z M7,90.4
	c0,0.3,0,0.5-0.1,0.8c-0.3,1.5-1.4,2.4-2.5,2.4c-1.9,0-2.8-1.9-2.8-3.9c0-2.3,1.1-4,2.8-4c1.3,0,2.2,1,2.5,2.2C7,88.1,7,88.4,7,88.6
	V90.4L7,90.4z M16.2,89.5c0-0.2,0-0.3,0-0.5c0-1.3-0.5-4.1-3.1-4.1c-2,0-3.5,1.9-3.5,4.9c0,2.7,1.4,4.5,3.7,4.5
	c1.4,0,2.2-0.4,2.5-0.6L15.5,93c-0.4,0.2-1,0.5-2.2,0.5c-1.6,0-3-1.1-3-4H16.2L16.2,89.5z M10.4,88.8c0.1-1.4,0.9-3.2,2.6-3.2
	c1.9,0,2.4,1.9,2.3,3.2H10.4L10.4,88.8z M17,85.1l3.1,9h0.7l3.2-9h-0.8l-1.9,5.6c-0.3,0.9-0.6,1.7-0.8,2.4h0
	c-0.2-0.8-0.5-1.5-0.8-2.4l-1.8-5.6H17L17,85.1z M26.1,94.1v-9h-0.8v9H26.1L26.1,94.1z M25.7,83.2c0.4,0,0.6-0.4,0.6-0.8
	c0-0.4-0.3-0.8-0.6-0.8c-0.4,0-0.6,0.4-0.6,0.8C25.1,82.9,25.3,83.2,25.7,83.2L25.7,83.2L25.7,83.2z M33.8,93c-0.4,0.2-1,0.5-2,0.5
	c-1.8,0-3.1-1.5-3.1-3.9c0-2.1,1.1-4,3.2-4c0.9,0,1.5,0.3,1.8,0.5l0.3-0.7c-0.3-0.2-1.1-0.6-2.1-0.6c-2.3,0-4,1.9-4,4.8
	c0,2.7,1.5,4.6,3.8,4.6c1.1,0,2-0.4,2.3-0.6L33.8,93L33.8,93z M41.6,89.5c0-0.2,0-0.3,0-0.5c0-1.3-0.5-4.1-3.1-4.1
	c-2,0-3.5,1.9-3.5,4.9c0,2.7,1.4,4.5,3.7,4.5c1.4,0,2.2-0.4,2.5-0.6L41,93c-0.4,0.2-1,0.5-2.2,0.5c-1.6,0-3-1.1-3-4H41.6L41.6,89.5z
	 M35.9,88.8c0.1-1.4,0.9-3.2,2.6-3.2c1.9,0,2.4,1.9,2.3,3.2H35.9L35.9,88.8z M43.6,94.3c0.4,0,0.7-0.4,0.7-0.8
	c0-0.5-0.3-0.8-0.7-0.8s-0.7,0.4-0.7,0.8C42.9,93.9,43.2,94.3,43.6,94.3L43.6,94.3L43.6,94.3z"/>
</svg>
